<svg aria-hidden="true" style="position: absolute; width: 0; height: 0; overflow: hidden;" version="1.1" xmlns="http://www.w3.org/2000/svg" xmlns:xlink="http://www.w3.org/1999/xlink">
<defs>
<symbol id="icon-map-pin" viewBox="0 0 32 32">
<path d="M16 0c-5.523 0-10 4.477-10 10 0 10 10 22 10 22s10-12 10-22c0-5.523-4.477-10-10-10zM16 16c-3.314 0-6-2.686-6-6s2.686-6 6-6 6 2.686 6 6-2.686 6-6 6z"></path>
</symbol>
<symbol id="icon-streamline_microwave" viewBox="0 0 32 32">
<path stroke-linejoin="round" stroke-linecap="round" stroke-miterlimit="4" stroke-width="2.1333" d="M28.735 6.095h-26.122c-0.289 0-0.566 0.115-0.77 0.319s-0.319 0.481-0.319 0.77v17.415c0 0.289 0.115 0.566 0.319 0.77s0.481 0.319 0.77 0.319h26.122c0.289 0 0.566-0.115 0.77-0.319s0.319-0.481 0.319-0.77v-17.415c0-0.289-0.115-0.566-0.319-0.77s-0.481-0.319-0.77-0.319z"></path>
<path stroke-linejoin="round" stroke-linecap="round" stroke-miterlimit="4" stroke-width="2.1333" d="M24.381 11.537h1.088M24.381 15.891h1.088M18.939 10.449h-11.973c-0.289 0-0.566 0.115-0.77 0.319s-0.319 0.481-0.319 0.77v8.708c0 0.289 0.115 0.566 0.319 0.77s0.481 0.319 0.77 0.319h11.973c0.289 0 0.566-0.115 0.77-0.319s0.319-0.481 0.319-0.77v-8.707c0-0.289-0.115-0.566-0.319-0.77s-0.481-0.319-0.77-0.319z"></path>
</symbol>
<symbol id="icon-ion_water-outline" viewBox="0 0 32 32">
<path stroke-linejoin="miter" stroke-linecap="butt" stroke-miterlimit="10" stroke-width="2.4" d="M25 20c0 5.523-3.477 9-9 9s-9-3.477-9-9c0-5.927 6.452-13.928 8.431-16.242 0.070-0.082 0.158-0.148 0.256-0.194s0.205-0.069 0.314-0.069c0.108 0 0.215 0.023 0.314 0.069s0.186 0.111 0.256 0.194c1.978 2.314 8.43 10.316 8.43 16.242z"></path>
<path stroke-linejoin="round" stroke-linecap="round" stroke-miterlimit="4" stroke-width="2.4" d="M21.5 20.5c0 1.193-0.474 2.338-1.318 3.182s-1.988 1.318-3.182 1.318"></path>
</symbol>
<symbol id="icon-mdi_gas" viewBox="0 0 32 32">
<path d="M25.072 13.991c-0.368-0.453-0.816-0.846-1.232-1.239-1.072-0.907-2.288-1.556-3.311-2.508-2.384-2.206-2.912-5.848-1.392-8.644-1.52 0.348-2.848 1.133-3.983 1.995-4.143 3.143-5.775 8.689-3.823 13.449 0.064 0.151 0.128 0.302 0.128 0.499 0 0.332-0.24 0.635-0.56 0.756-0.368 0.151-0.752 0.060-1.056-0.181-0.091-0.071-0.167-0.159-0.224-0.257-1.808-2.161-2.096-5.259-0.88-7.737-2.672 2.055-4.127 5.531-3.919 8.81 0.096 0.756 0.192 1.511 0.464 2.267 0.224 0.907 0.656 1.813 1.136 2.614 1.728 2.614 4.719 4.488 7.935 4.866 3.423 0.408 7.087-0.181 9.71-2.418 2.927-2.508 3.951-6.528 2.448-9.974l-0.208-0.393c-0.336-0.695-1.232-1.904-1.232-1.904zM20.017 23.512c-0.448 0.363-1.184 0.756-1.76 0.907-1.792 0.604-3.583-0.242-4.639-1.239 1.904-0.423 3.039-1.753 3.375-3.098 0.272-1.209-0.24-2.206-0.448-3.37-0.192-1.118-0.16-2.070 0.272-3.113 0.304 0.574 0.624 1.148 1.008 1.602 1.232 1.511 3.167 2.176 3.583 4.231 0.064 0.212 0.096 0.423 0.096 0.65 0.048 1.239-0.528 2.599-1.488 3.43z"></path>
</symbol>
<symbol id="icon-arcticons_freezer" viewBox="0 0 32 32">
<path stroke-linejoin="round" stroke-linecap="round" stroke-miterlimit="4" stroke-width="2.0800" d="M23.4 3h-14.793c-1.105 0-2 0.895-2 2v20.387c0 1.104 0.895 2 2 2h14.793c1.104 0 2-0.896 2-2v-20.387c0-1.105-0.896-2-2-2z"></path>
<path stroke-linejoin="round" stroke-linecap="round" stroke-miterlimit="4" stroke-width="2.0800" d="M6.607 13.127h18.787M10.313 10.567v-4.040M10.313 19.44v-4.040M8.427 27.387v0.7c0 0.241 0.095 0.472 0.265 0.643s0.4 0.268 0.642 0.27h1.647c0.242 0 0.475-0.096 0.646-0.268s0.268-0.404 0.268-0.646v-0.7M20.1 27.387v0.7c0 0.242 0.096 0.474 0.268 0.646s0.404 0.268 0.646 0.268h1.653c0.242 0 0.474-0.096 0.646-0.268s0.268-0.404 0.268-0.646v-0.7"></path>
</symbol>
<symbol id="icon-Rating-1" viewBox="0 0 32 32">
<path stroke-linejoin="round" stroke-linecap="round" stroke-miterlimit="4" stroke-width="2.56" d="M5.333 5.333l3.333 3.333M18 8.667c-1.242-1.217-2.914-1.895-4.653-1.886s-3.404 0.703-4.634 1.933c-1.23 1.23-1.924 2.895-1.933 4.634s0.669 3.411 1.886 4.653M20 6.667l-13.333 13.333M18.667 22.667v0.013M13.333 21.333v0.013M17.333 17.333v0.013M21.333 13.333v0.013M14.667 26.667v0.013M22.667 18.667v0.013M26.667 14.667v0.013"></path>
</symbol>
<symbol id="icon-mingcute_toilet-paper-line" viewBox="0 0 32 32">
<path d="M24 4c1.939 0 3.269 1.647 4.040 3.313 0.761 1.653 1.224 3.811 1.287 6.145l0.007 0.541v12.667c0 0.18-0.036 0.357-0.106 0.523s-0.173 0.315-0.303 0.439c-0.13 0.125-0.283 0.222-0.451 0.285s-0.347 0.093-0.527 0.086l-0.165-0.019-3.781-0.629-3.781 0.629c-0.16 0.027-0.324 0.024-0.483-0.008l-0.157-0.041-3.579-1.193-3.579 1.193c-0.188 0.063-0.387 0.083-0.583 0.059s-0.385-0.092-0.552-0.197-0.309-0.248-0.414-0.415c-0.105-0.167-0.172-0.356-0.196-0.553l-0.009-0.159v-3.903c-0.708 0.733-1.595 1.236-2.667 1.236-1.939 0-3.269-1.647-4.040-3.313-0.819-1.78-1.293-4.145-1.293-6.687s0.473-4.907 1.293-6.687c0.735-1.592 1.981-3.164 3.78-3.303l0.26-0.011h16zM24 6.667h-12.291c0.12 0.213 0.229 0.429 0.329 0.647 0.821 1.78 1.295 4.145 1.295 6.687v10.817l2.245-0.749c0.274-0.091 0.569-0.091 0.843 0l3.687 1.229 3.673-0.613c0.144-0.024 0.293-0.024 0.437 0l2.448 0.409v-11.093c0-2.245-0.423-4.213-1.049-5.569-0.677-1.471-1.347-1.764-1.617-1.764zM8 6.667c-0.271 0-0.94 0.293-1.617 1.764-0.627 1.356-1.049 3.324-1.049 5.569s0.423 4.213 1.049 5.569c0.677 1.471 1.347 1.764 1.617 1.764s0.94-0.293 1.617-1.764c0.627-1.356 1.049-3.324 1.049-5.569s-0.423-4.213-1.049-5.569c-0.677-1.471-1.347-1.764-1.617-1.764zM8 11.333c0.736 0 1.333 1.193 1.333 2.667s-0.597 2.667-1.333 2.667c-0.736 0-1.333-1.193-1.333-2.667s0.597-2.667 1.333-2.667z"></path>
</symbol>
<symbol id="icon-icon-park-outline_hand-painted-plate" viewBox="0 0 32 32">
<path fill="none" stroke="#101828" style="stroke: var(--color1, #101828)" stroke-linejoin="miter" stroke-linecap="butt" stroke-miterlimit="4" stroke-width="1.7143" d="M13.143 5.905h11.429c0.253 0 0.495 0.1 0.673 0.279s0.279 0.421 0.279 0.673v12.381c0 0.253-0.1 0.495-0.279 0.673s-0.421 0.279-0.673 0.279h-11.429M13.143 5.905h-5.714c-0.253 0-0.495 0.1-0.673 0.279s-0.279 0.421-0.279 0.673v12.381c0 0.253 0.1 0.495 0.279 0.673s0.421 0.279 0.673 0.279h5.714M13.143 5.905v14.286"></path>
<path fill="none" stroke="#101828" style="stroke: var(--color1, #101828)" stroke-linejoin="round" stroke-linecap="round" stroke-miterlimit="4" stroke-width="1.7143" d="M9.809 9.238v1.905M22.19 8.762l-5.714 8.095"></path>
<path d="M10.762 14c0-0.526-0.426-0.952-0.952-0.952s-0.952 0.426-0.952 0.952c0 0.526 0.426 0.952 0.952 0.952s0.952-0.426 0.952-0.952z"></path>
<path d="M10.762 16.857c0-0.526-0.426-0.952-0.952-0.952s-0.952 0.426-0.952 0.952c0 0.526 0.426 0.952 0.952 0.952s0.952-0.426 0.952-0.952z"></path>
</symbol>
<symbol id="icon-solar_radio-linear" viewBox="0 0 32 32">
<path stroke-linejoin="miter" stroke-linecap="butt" stroke-miterlimit="4" stroke-width="2.0800" d="M2.667 18.667c0-5.028 0-7.543 1.563-9.104 1.561-1.563 4.076-1.563 9.104-1.563h5.333c5.028 0 7.543 0 9.104 1.563 1.563 1.561 1.563 4.076 1.563 9.104s0 7.543-1.563 9.104c-1.561 1.563-4.076 1.563-9.104 1.563h-5.333c-5.028 0-7.543 0-9.104-1.563-1.563-1.561-1.563-4.076-1.563-9.104z"></path>
<path stroke-linejoin="miter" stroke-linecap="butt" stroke-miterlimit="4" stroke-width="2.0800" d="M6.667 14.667c0-0.707 0.281-1.386 0.781-1.886s1.178-0.781 1.886-0.781h13.333c0.707 0 1.386 0.281 1.886 0.781s0.781 1.178 0.781 1.886-0.281 1.386-0.781 1.886c-0.5 0.5-1.178 0.781-1.886 0.781h-13.333c-0.707 0-1.386-0.281-1.886-0.781s-0.781-1.178-0.781-1.886zM12 22.667c0 0.53-0.211 1.039-0.586 1.414s-0.884 0.586-1.414 0.586-1.039-0.211-1.414-0.586c-0.375-0.375-0.586-0.884-0.586-1.414s0.211-1.039 0.586-1.414 0.884-0.586 1.414-0.586c0.53 0 1.039 0.211 1.414 0.586s0.586 0.884 0.586 1.414z"></path>
<path stroke-linejoin="miter" stroke-linecap="round" stroke-miterlimit="4" stroke-width="2.0800" d="M20 15.333v2M17.333 22.667h6.667M8.667 8l11.333-5.333"></path>
</symbol>
<symbol id="icon-icon-park-outline_cd" viewBox="0 0 32 32">
<path stroke-linejoin="miter" stroke-linecap="butt" stroke-miterlimit="4" stroke-width="2.4" d="M16 28c6.627 0 12-5.373 12-12s-5.373-12-12-12c-6.627 0-12 5.373-12 12s5.373 12 12 12z"></path>
<path stroke-linejoin="miter" stroke-linecap="round" stroke-miterlimit="4" stroke-width="2.4" d="M8.667 16c0-4.050 3.283-7.333 7.333-7.333"></path>
<path stroke-linejoin="miter" stroke-linecap="butt" stroke-miterlimit="4" stroke-width="2.4" d="M16 19.333c1.841 0 3.333-1.492 3.333-3.333s-1.492-3.333-3.333-3.333c-1.841 0-3.333 1.492-3.333 3.333s1.492 3.333 3.333 3.333z"></path>
</symbol>
<symbol id="icon-air-conditioner-svgrepo-com" viewBox="0 0 32 32">
<path d="M29.238 4.138h-26.477c-1.523 0-2.761 1.24-2.761 2.764v7.713c0 1.524 1.239 2.764 2.761 2.764h11.583v7.724h1.104v-7.724h1.103v7.724h1.104v-7.724h11.583c1.523 0 2.761-1.24 2.761-2.764v-7.713c-0-1.524-1.239-2.764-2.762-2.764zM30.896 14.615c0 0.915-0.744 1.661-1.658 1.661h-26.477c-0.914 0-1.658-0.745-1.658-1.661v-7.713c0-0.915 0.744-1.66 1.658-1.66h26.477c0.914 0 1.658 0.745 1.658 1.66v7.713z"></path>
<path d="M5.517 13.517h20.422v1.104h-20.422v-1.104z"></path>
<path d="M3.31 11.862h25.379v1.104h-25.379v-1.104z"></path>
<path d="M23.724 24.552c-0.305 0-0.552 0.247-0.552 0.552 0 0.913-0.743 1.655-1.655 1.655s-1.655-0.743-1.655-1.655v-6.069h-1.104v6.069c0 1.521 1.238 2.759 2.759 2.759s2.759-1.238 2.759-2.759c0-0.305-0.247-0.552-0.552-0.552z"></path>
<path d="M12.138 25.103c0 0.913-0.743 1.655-1.655 1.655s-1.655-0.743-1.655-1.655c0-0.305-0.247-0.552-0.552-0.552s-0.552 0.247-0.552 0.552c0 1.521 1.238 2.759 2.759 2.759s2.759-1.238 2.759-2.759v-6.069h-1.104v6.069z"></path>
</symbol>
<symbol id="icon-Property-1pressed" viewBox="0 0 32 32">
<path fill="#e44848" style="fill: var(--color2, #e44848); stroke: var(--color2, #e44848)" stroke="#e44848" stroke-linejoin="round" stroke-linecap="round" stroke-miterlimit="4" stroke-width="2.3" d="M24.84 5.11c-0.511-0.511-1.117-0.916-1.785-1.193s-1.383-0.419-2.105-0.419-1.438 0.142-2.105 0.419c-0.668 0.277-1.274 0.682-1.785 1.193l-1.060 1.060-1.060-1.060c-1.032-1.032-2.431-1.611-3.89-1.611s-2.858 0.58-3.89 1.611c-1.032 1.032-1.611 2.431-1.611 3.89s0.58 2.858 1.611 3.89l8.84 8.84 8.84-8.84c0.511-0.511 0.916-1.117 1.193-1.785s0.419-1.383 0.419-2.105-0.142-1.438-0.419-2.105c-0.276-0.667-0.682-1.274-1.193-1.785z"></path>
</symbol>
<symbol id="icon-Property-1Default" viewBox="0 0 32 32">
<path stroke-linejoin="round" stroke-linecap="round" stroke-miterlimit="4" stroke-width="3.0667" d="M27.787 6.147c-0.681-0.681-1.49-1.222-2.379-1.591s-1.844-0.559-2.807-0.559-1.917 0.19-2.807 0.559c-0.89 0.369-1.699 0.909-2.38 1.591l-1.413 1.413-1.413-1.413c-1.376-1.376-3.241-2.148-5.187-2.148s-3.811 0.773-5.187 2.148c-1.376 1.376-2.148 3.241-2.148 5.187s0.773 3.811 2.148 5.187l11.787 11.787 11.787-11.787c0.681-0.681 1.222-1.49 1.591-2.38s0.559-1.844 0.559-2.807-0.19-1.917-0.559-2.807c-0.369-0.89-0.909-1.699-1.591-2.38z"></path>
</symbol>
<symbol id="icon-vlan" viewBox="0 0 32 32">
<path d="M1.826 6.060h8.686c0.073 0 0.142-0.028 0.194-0.079l0.834-0.814c0.243-0.237 0.565-0.367 0.908-0.367h13.172c0.613 0 1.183 0.297 1.523 0.795l1.579 2.31c0.224 0.328 0.244 0.747 0.054 1.095s-0.56 0.563-0.964 0.563h-6.789v0.669h3.477c0.922 0 1.751 0.534 2.112 1.361l2.036 4.655 1.783 0.696c0.952 0.372 1.568 1.258 1.568 2.259v4.311c0 0.643-0.536 1.166-1.195 1.166h-2.075c-0.241 1.427-1.515 2.52-3.045 2.52s-2.804-1.092-3.045-2.52h-11.342c-0.241 1.427-1.515 2.52-3.045 2.52s-2.804-1.092-3.045-2.52h-4.145c-0.586 0-1.063-0.465-1.063-1.037v-15.803c0-0.982 0.819-1.781 1.826-1.781zM25.685 26.216c1.146 0 2.078-0.909 2.078-2.027s-0.932-2.027-2.078-2.027c-1.146 0-2.078 0.909-2.078 2.027s0.932 2.027 2.078 2.027zM21.024 23.696h1.615c0.004-0.025 0.009-0.049 0.014-0.073 0.003-0.017 0.006-0.033 0.010-0.050 0.008-0.039 0.017-0.077 0.027-0.115 0.002-0.008 0.004-0.016 0.006-0.024 0.012-0.046 0.025-0.091 0.040-0.136 0.004-0.013 0.009-0.026 0.013-0.039 0.010-0.032 0.021-0.063 0.033-0.094 0.006-0.017 0.013-0.033 0.020-0.050 0.010-0.027 0.021-0.054 0.033-0.081 0.007-0.018 0.015-0.035 0.023-0.052 0.011-0.026 0.023-0.050 0.035-0.076 0.009-0.018 0.017-0.035 0.027-0.053 0.012-0.024 0.025-0.048 0.038-0.072 0.009-0.017 0.019-0.035 0.029-0.052 0.013-0.024 0.027-0.047 0.042-0.070 0.010-0.017 0.020-0.033 0.030-0.050 0.015-0.024 0.031-0.047 0.046-0.070 0.010-0.015 0.021-0.031 0.031-0.046 0.017-0.025 0.036-0.049 0.054-0.074 0.009-0.013 0.019-0.026 0.028-0.039 0.025-0.032 0.050-0.063 0.076-0.094 0.004-0.005 0.007-0.009 0.011-0.014 0.030-0.035 0.061-0.070 0.092-0.104 0.010-0.011 0.020-0.020 0.030-0.031 0.022-0.023 0.044-0.046 0.067-0.069 0.013-0.013 0.026-0.025 0.039-0.037 0.021-0.020 0.042-0.039 0.063-0.059 0.014-0.013 0.029-0.025 0.043-0.038 0.021-0.018 0.042-0.036 0.063-0.054l0.046-0.037c0.021-0.017 0.043-0.034 0.065-0.050 0.016-0.012 0.032-0.024 0.048-0.035 0.022-0.016 0.045-0.032 0.068-0.047 0.016-0.011 0.032-0.022 0.048-0.032 0.024-0.016 0.048-0.031 0.073-0.046 0.016-0.009 0.031-0.019 0.048-0.029 0.027-0.016 0.054-0.031 0.082-0.046 0.014-0.008 0.028-0.016 0.042-0.023 0.039-0.020 0.078-0.040 0.118-0.059 0.003-0.001 0.006-0.003 0.009-0.004 0.043-0.020 0.086-0.039 0.13-0.057 0.014-0.006 0.029-0.011 0.043-0.017 0.030-0.012 0.060-0.024 0.091-0.035 0.017-0.006 0.035-0.012 0.052-0.018 0.028-0.009 0.056-0.019 0.084-0.028 0.019-0.006 0.038-0.011 0.057-0.017 0.027-0.008 0.055-0.016 0.082-0.023 0.020-0.005 0.040-0.010 0.060-0.015 0.027-0.007 0.055-0.013 0.083-0.018 0.020-0.004 0.040-0.009 0.061-0.013 0.028-0.005 0.057-0.010 0.085-0.015 0.020-0.004 0.040-0.007 0.060-0.009 0.029-0.004 0.059-0.008 0.090-0.011 0.019-0.002 0.038-0.005 0.058-0.006 0.033-0.003 0.067-0.006 0.1-0.007 0.017-0.001 0.033-0.003 0.049-0.003 0.050-0.003 0.1-0.004 0.151-0.004s0.101 0.001 0.151 0.004c0.017 0 0.033 0.002 0.049 0.003 0.034 0.002 0.067 0.004 0.1 0.007 0.019 0.002 0.039 0.004 0.058 0.006 0.030 0.004 0.060 0.007 0.090 0.011 0.021 0.003 0.040 0.006 0.061 0.009 0.029 0.004 0.057 0.009 0.085 0.015 0.021 0.004 0.041 0.008 0.061 0.013 0.028 0.006 0.055 0.012 0.083 0.018 0.020 0.005 0.040 0.010 0.060 0.015 0.027 0.007 0.055 0.015 0.082 0.023 0.019 0.006 0.038 0.011 0.057 0.017 0.028 0.009 0.056 0.018 0.084 0.028 0.017 0.006 0.035 0.012 0.052 0.018 0.031 0.011 0.061 0.023 0.091 0.035 0.014 0.006 0.029 0.011 0.043 0.017 0.044 0.018 0.087 0.037 0.13 0.057 0.003 0.002 0.006 0.003 0.009 0.004 0.040 0.019 0.079 0.039 0.118 0.059 0.014 0.007 0.027 0.015 0.042 0.023 0.027 0.015 0.055 0.030 0.082 0.046 0.016 0.009 0.032 0.019 0.048 0.029 0.024 0.015 0.049 0.030 0.073 0.046 0.016 0.011 0.032 0.022 0.048 0.032 0.023 0.016 0.046 0.031 0.068 0.047 0.016 0.011 0.032 0.023 0.048 0.035 0.022 0.016 0.044 0.033 0.065 0.050l0.046 0.037c0.021 0.018 0.042 0.035 0.063 0.054 0.015 0.013 0.029 0.025 0.043 0.038 0.021 0.019 0.042 0.039 0.063 0.059 0.013 0.012 0.026 0.024 0.039 0.037 0.023 0.023 0.045 0.046 0.067 0.069 0.010 0.010 0.020 0.020 0.030 0.031 0.031 0.034 0.062 0.068 0.092 0.104 0.004 0.005 0.008 0.009 0.011 0.014 0.026 0.031 0.051 0.062 0.076 0.094 0.010 0.013 0.019 0.026 0.028 0.039 0.019 0.024 0.037 0.049 0.054 0.074 0.010 0.015 0.021 0.030 0.031 0.046 0.016 0.024 0.031 0.047 0.046 0.070 0.010 0.017 0.020 0.033 0.030 0.050 0.014 0.023 0.028 0.047 0.042 0.070 0.010 0.017 0.019 0.035 0.029 0.052 0.013 0.024 0.026 0.048 0.038 0.072 0.009 0.018 0.018 0.035 0.027 0.053 0.012 0.025 0.023 0.050 0.035 0.076 0.008 0.017 0.016 0.035 0.023 0.052 0.012 0.027 0.022 0.054 0.033 0.081 0.007 0.016 0.013 0.033 0.020 0.050 0.011 0.031 0.022 0.063 0.033 0.094 0.004 0.013 0.009 0.026 0.013 0.039 0.014 0.045 0.027 0.090 0.040 0.136 0.002 0.008 0.004 0.016 0.006 0.024 0.010 0.038 0.019 0.076 0.027 0.115 0.004 0.016 0.006 0.033 0.010 0.050 0.005 0.024 0.010 0.048 0.014 0.073h2.074c0.103 0 0.186-0.082 0.186-0.182v-2.062h-0.787v-0.984h0.787v-1.264c0-0.596-0.366-1.124-0.933-1.345l-1.888-0.737h-7.146v6.574zM21.024 16.138h6.48l-1.818-4.158c-0.203-0.464-0.668-0.763-1.185-0.763h-3.477v4.921zM8.252 26.216c1.146 0 2.078-0.909 2.078-2.027s-0.932-2.027-2.078-2.027c-0.036 0-0.071 0.001-0.107 0.003-0.955 0.047-1.742 0.727-1.929 1.616-0.007 0.033-0.013 0.067-0.019 0.1-0.011 0.067-0.017 0.135-0.021 0.204-0.002 0.035-0.003 0.069-0.003 0.104 0 1.118 0.932 2.027 2.078 2.027zM1.009 20.468h0.787v0.984h-0.787v2.192c0 0.029 0.024 0.052 0.054 0.052h4.144c0.004-0.024 0.009-0.048 0.014-0.072 0.003-0.017 0.006-0.034 0.010-0.051 0.008-0.038 0.017-0.075 0.027-0.112 0.002-0.009 0.004-0.018 0.006-0.026 0.012-0.046 0.025-0.090 0.040-0.135 0.004-0.014 0.009-0.028 0.014-0.041 0.011-0.031 0.021-0.062 0.032-0.093 0.006-0.017 0.013-0.034 0.020-0.051 0.011-0.027 0.021-0.054 0.032-0.080 0.008-0.018 0.016-0.036 0.024-0.054 0.011-0.025 0.023-0.050 0.035-0.074 0.008-0.018 0.018-0.036 0.027-0.054 0.012-0.024 0.025-0.048 0.038-0.072 0.010-0.017 0.019-0.035 0.029-0.052 0.014-0.024 0.027-0.047 0.042-0.070 0.010-0.017 0.020-0.033 0.031-0.050 0.015-0.024 0.030-0.047 0.046-0.070 0.010-0.016 0.021-0.032 0.031-0.046 0.017-0.025 0.035-0.049 0.053-0.073 0.010-0.013 0.019-0.027 0.029-0.040 0.024-0.031 0.049-0.062 0.074-0.092 0.004-0.006 0.008-0.011 0.013-0.016 0.030-0.035 0.061-0.070 0.092-0.104 0.010-0.011 0.020-0.021 0.030-0.032 0.022-0.023 0.044-0.046 0.067-0.068 0.013-0.013 0.026-0.025 0.040-0.037 0.021-0.020 0.041-0.039 0.063-0.058 0.014-0.013 0.029-0.025 0.044-0.038 0.021-0.018 0.042-0.035 0.063-0.053 0.015-0.013 0.031-0.025 0.046-0.037 0.021-0.017 0.043-0.033 0.065-0.050 0.016-0.012 0.032-0.024 0.048-0.035 0.022-0.016 0.045-0.032 0.067-0.047 0.017-0.011 0.033-0.022 0.049-0.033 0.024-0.016 0.048-0.031 0.072-0.045 0.016-0.010 0.032-0.020 0.048-0.029 0.027-0.016 0.054-0.031 0.081-0.046 0.014-0.008 0.028-0.016 0.042-0.023 0.038-0.020 0.077-0.040 0.117-0.058 0.003-0.002 0.006-0.004 0.010-0.005 0.043-0.020 0.086-0.039 0.13-0.057 0.014-0.006 0.029-0.011 0.043-0.017 0.030-0.012 0.060-0.024 0.091-0.035 0.017-0.006 0.035-0.012 0.053-0.018 0.027-0.009 0.055-0.019 0.084-0.028 0.019-0.006 0.038-0.011 0.057-0.017 0.027-0.008 0.055-0.016 0.082-0.023 0.020-0.005 0.040-0.010 0.060-0.015 0.027-0.007 0.055-0.013 0.083-0.018 0.020-0.004 0.040-0.009 0.061-0.013 0.028-0.005 0.056-0.010 0.085-0.015 0.020-0.004 0.040-0.007 0.061-0.009 0.029-0.004 0.059-0.008 0.090-0.011 0.019-0.002 0.038-0.005 0.058-0.006 0.033-0.003 0.067-0.006 0.1-0.007 0.016-0.001 0.033-0.003 0.049-0.003 0.050-0.003 0.1-0.004 0.151-0.004s0.101 0.001 0.151 0.004c0.017 0 0.033 0.002 0.049 0.003 0.033 0.002 0.067 0.004 0.1 0.007 0.019 0.002 0.039 0.004 0.058 0.006 0.030 0.004 0.060 0.007 0.090 0.011 0.021 0.003 0.040 0.006 0.060 0.009 0.029 0.004 0.057 0.009 0.085 0.015 0.021 0.004 0.041 0.008 0.061 0.013 0.028 0.006 0.055 0.012 0.083 0.018 0.020 0.005 0.040 0.010 0.060 0.015 0.027 0.007 0.055 0.015 0.082 0.023 0.019 0.006 0.038 0.011 0.057 0.017 0.028 0.009 0.056 0.018 0.084 0.028 0.018 0.006 0.036 0.012 0.053 0.018 0.031 0.011 0.061 0.023 0.091 0.035 0.014 0.006 0.029 0.011 0.043 0.017 0.044 0.018 0.087 0.037 0.13 0.057 0.004 0.002 0.007 0.003 0.010 0.005 0.040 0.019 0.078 0.038 0.117 0.058 0.014 0.007 0.028 0.015 0.042 0.023 0.027 0.015 0.054 0.030 0.081 0.046 0.016 0.009 0.032 0.019 0.048 0.029 0.024 0.015 0.048 0.030 0.072 0.045 0.016 0.011 0.032 0.022 0.049 0.033 0.023 0.015 0.045 0.031 0.067 0.047 0.016 0.011 0.032 0.023 0.048 0.035 0.022 0.016 0.044 0.033 0.065 0.050 0.016 0.012 0.031 0.025 0.046 0.037 0.021 0.017 0.042 0.035 0.063 0.053 0.015 0.013 0.029 0.025 0.044 0.038 0.021 0.019 0.042 0.039 0.063 0.059 0.013 0.012 0.026 0.024 0.039 0.037 0.023 0.022 0.045 0.046 0.067 0.069 0.010 0.010 0.020 0.020 0.030 0.031 0.031 0.034 0.062 0.068 0.092 0.104 0.004 0.005 0.008 0.010 0.012 0.015 0.025 0.031 0.051 0.062 0.075 0.094 0.010 0.013 0.019 0.026 0.029 0.039 0.018 0.024 0.036 0.049 0.054 0.074 0.010 0.015 0.021 0.031 0.031 0.046 0.016 0.023 0.031 0.046 0.046 0.070 0.010 0.017 0.021 0.033 0.031 0.050 0.014 0.023 0.028 0.047 0.042 0.070 0.010 0.017 0.019 0.035 0.029 0.052 0.013 0.024 0.026 0.048 0.038 0.072 0.009 0.018 0.017 0.035 0.026 0.053 0.012 0.025 0.023 0.050 0.035 0.076 0.008 0.017 0.016 0.035 0.023 0.052 0.012 0.027 0.022 0.054 0.033 0.081 0.006 0.016 0.013 0.033 0.019 0.050 0.012 0.031 0.022 0.063 0.033 0.095 0.004 0.013 0.009 0.026 0.013 0.039 0.014 0.045 0.027 0.091 0.040 0.136 0.002 0.007 0.003 0.015 0.005 0.022 0.010 0.039 0.019 0.078 0.028 0.117 0.004 0.016 0.006 0.032 0.009 0.048 0.005 0.025 0.010 0.049 0.015 0.074h8.717v-14.625c0-0.272 0.226-0.492 0.504-0.492h7.293c0.012 0 0.051 0 0.075-0.044s0.003-0.074-0.004-0.084l-1.578-2.31c-0.153-0.224-0.408-0.357-0.684-0.357h-13.172c-0.073 0-0.142 0.028-0.195 0.079l-0.834 0.814c-0.242 0.237-0.565 0.367-0.908 0.367h-8.686c-0.45 0-0.817 0.357-0.817 0.797v12.627z"></path>
<path d="M3.875 9.838h6.17c0.713 0 1.293 0.566 1.293 1.262v2.87c0 0.696-0.58 1.262-1.293 1.262h-6.17c-0.713 0-1.293-0.566-1.293-1.262v-2.87c0-0.696 0.581-1.262 1.294-1.262zM3.591 13.97c0 0.153 0.127 0.278 0.284 0.278h6.17c0.157 0 0.284-0.124 0.284-0.278v-2.87c0-0.153-0.128-0.278-0.284-0.278h-6.17c-0.157 0-0.284 0.124-0.284 0.278l0 2.87z"></path>
</symbol>
<symbol id="icon-fully-integrated" viewBox="0 0 32 32">
<path d="M1.826 6.060h8.686c0.073 0 0.142-0.028 0.194-0.079l0.834-0.814c0.243-0.237 0.565-0.367 0.908-0.367h13.172c0.613 0 1.183 0.297 1.523 0.795l1.579 2.31c0.224 0.328 0.244 0.747 0.054 1.095s-0.56 0.563-0.964 0.563h-6.789v0.669h3.477c0.922 0 1.751 0.534 2.112 1.361l2.036 4.655 1.783 0.696c0.952 0.372 1.568 1.258 1.568 2.259v4.311c0 0.643-0.536 1.166-1.195 1.166h-2.075c-0.241 1.427-1.515 2.52-3.045 2.52s-2.804-1.092-3.045-2.52h-11.342c-0.241 1.427-1.515 2.52-3.045 2.52s-2.804-1.092-3.045-2.52h-4.145c-0.586 0-1.063-0.465-1.063-1.037v-15.803c0-0.982 0.819-1.781 1.826-1.781zM25.685 26.216c1.146 0 2.078-0.909 2.078-2.027s-0.932-2.027-2.078-2.027c-1.146 0-2.078 0.909-2.078 2.027s0.932 2.027 2.078 2.027zM21.024 23.696h1.615c0.004-0.025 0.009-0.049 0.014-0.073 0.003-0.017 0.006-0.033 0.010-0.050 0.008-0.039 0.017-0.077 0.027-0.115 0.002-0.008 0.004-0.016 0.006-0.024 0.012-0.046 0.025-0.091 0.040-0.136 0.004-0.013 0.009-0.026 0.013-0.039 0.010-0.032 0.021-0.063 0.033-0.094 0.006-0.017 0.013-0.033 0.020-0.050 0.010-0.027 0.021-0.054 0.033-0.081 0.007-0.018 0.015-0.035 0.023-0.052 0.011-0.026 0.023-0.050 0.035-0.076 0.009-0.018 0.017-0.035 0.027-0.053 0.012-0.024 0.025-0.048 0.038-0.072 0.009-0.017 0.019-0.035 0.029-0.052 0.013-0.024 0.027-0.047 0.042-0.070 0.010-0.017 0.020-0.033 0.030-0.050 0.015-0.024 0.031-0.047 0.046-0.070 0.010-0.015 0.021-0.031 0.031-0.046 0.017-0.025 0.036-0.049 0.054-0.074 0.009-0.013 0.019-0.026 0.028-0.039 0.025-0.032 0.050-0.063 0.076-0.094 0.004-0.005 0.007-0.009 0.011-0.014 0.030-0.035 0.061-0.070 0.092-0.104 0.010-0.011 0.020-0.020 0.030-0.031 0.022-0.023 0.044-0.046 0.067-0.069 0.013-0.013 0.026-0.025 0.039-0.037 0.021-0.020 0.042-0.039 0.063-0.059 0.014-0.013 0.029-0.025 0.043-0.038 0.021-0.018 0.042-0.036 0.063-0.054l0.046-0.037c0.021-0.017 0.043-0.034 0.065-0.050 0.016-0.012 0.032-0.024 0.048-0.035 0.022-0.016 0.045-0.032 0.068-0.047 0.016-0.011 0.032-0.022 0.048-0.032 0.024-0.016 0.048-0.031 0.073-0.046 0.016-0.009 0.031-0.019 0.048-0.029 0.027-0.016 0.054-0.031 0.082-0.046 0.014-0.008 0.028-0.016 0.042-0.023 0.039-0.020 0.078-0.040 0.118-0.059 0.003-0.001 0.006-0.003 0.009-0.004 0.043-0.020 0.086-0.039 0.13-0.057 0.014-0.006 0.029-0.011 0.043-0.017 0.030-0.012 0.060-0.024 0.091-0.035 0.017-0.006 0.035-0.012 0.052-0.018 0.028-0.009 0.056-0.019 0.084-0.028 0.019-0.006 0.038-0.011 0.057-0.017 0.027-0.008 0.055-0.016 0.082-0.023 0.020-0.005 0.040-0.010 0.060-0.015 0.027-0.007 0.055-0.013 0.083-0.018 0.020-0.004 0.040-0.009 0.061-0.013 0.028-0.005 0.057-0.010 0.085-0.015 0.020-0.004 0.040-0.007 0.060-0.009 0.029-0.004 0.059-0.008 0.090-0.011 0.019-0.002 0.038-0.005 0.058-0.006 0.033-0.003 0.067-0.006 0.1-0.007 0.017-0.001 0.033-0.003 0.049-0.003 0.050-0.003 0.1-0.004 0.151-0.004s0.101 0.001 0.151 0.004c0.017 0 0.033 0.002 0.049 0.003 0.034 0.002 0.067 0.004 0.1 0.007 0.019 0.002 0.039 0.004 0.058 0.006 0.030 0.004 0.060 0.007 0.090 0.011 0.021 0.003 0.040 0.006 0.061 0.009 0.029 0.004 0.057 0.009 0.085 0.015 0.021 0.004 0.041 0.008 0.061 0.013 0.028 0.006 0.055 0.012 0.083 0.018 0.020 0.005 0.040 0.010 0.060 0.015 0.027 0.007 0.055 0.015 0.082 0.023 0.019 0.006 0.038 0.011 0.057 0.017 0.028 0.009 0.056 0.018 0.084 0.028 0.017 0.006 0.035 0.012 0.052 0.018 0.031 0.011 0.061 0.023 0.091 0.035 0.014 0.006 0.029 0.011 0.043 0.017 0.044 0.018 0.087 0.037 0.13 0.057 0.003 0.002 0.006 0.003 0.009 0.004 0.040 0.019 0.079 0.039 0.118 0.059 0.014 0.007 0.027 0.015 0.042 0.023 0.027 0.015 0.055 0.030 0.082 0.046 0.016 0.009 0.032 0.019 0.048 0.029 0.024 0.015 0.049 0.030 0.073 0.046 0.016 0.011 0.032 0.022 0.048 0.032 0.023 0.016 0.046 0.031 0.068 0.047 0.016 0.011 0.032 0.023 0.048 0.035 0.022 0.016 0.044 0.033 0.065 0.050l0.046 0.037c0.021 0.018 0.042 0.035 0.063 0.054 0.015 0.013 0.029 0.025 0.043 0.038 0.021 0.019 0.042 0.039 0.063 0.059 0.013 0.012 0.026 0.024 0.039 0.037 0.023 0.023 0.045 0.046 0.067 0.069 0.010 0.010 0.020 0.020 0.030 0.031 0.031 0.034 0.062 0.068 0.092 0.104 0.004 0.005 0.008 0.009 0.011 0.014 0.026 0.031 0.051 0.062 0.076 0.094 0.010 0.013 0.019 0.026 0.028 0.039 0.019 0.024 0.037 0.049 0.054 0.074 0.010 0.015 0.021 0.030 0.031 0.046 0.016 0.024 0.031 0.047 0.046 0.070 0.010 0.017 0.020 0.033 0.030 0.050 0.014 0.023 0.028 0.047 0.042 0.070 0.010 0.017 0.019 0.035 0.029 0.052 0.013 0.024 0.026 0.048 0.038 0.072 0.009 0.018 0.018 0.035 0.027 0.053 0.012 0.025 0.023 0.050 0.035 0.076 0.008 0.017 0.016 0.035 0.023 0.052 0.012 0.027 0.022 0.054 0.033 0.081 0.007 0.016 0.013 0.033 0.020 0.050 0.011 0.031 0.022 0.063 0.033 0.094 0.004 0.013 0.009 0.026 0.013 0.039 0.014 0.045 0.027 0.090 0.040 0.136 0.002 0.008 0.004 0.016 0.006 0.024 0.010 0.038 0.019 0.076 0.027 0.115 0.004 0.016 0.006 0.033 0.010 0.050 0.005 0.024 0.010 0.048 0.014 0.073h2.074c0.103 0 0.186-0.082 0.186-0.182v-2.062h-0.787v-0.984h0.787v-1.264c0-0.596-0.366-1.124-0.933-1.345l-1.888-0.737h-7.146v6.574zM21.024 16.138h6.48l-1.818-4.158c-0.203-0.464-0.668-0.763-1.185-0.763h-3.477v4.921zM8.252 26.216c1.146 0 2.078-0.909 2.078-2.027s-0.932-2.027-2.078-2.027c-0.036 0-0.071 0.001-0.107 0.003-0.955 0.047-1.742 0.727-1.929 1.616-0.007 0.033-0.013 0.067-0.019 0.1-0.011 0.067-0.017 0.135-0.021 0.204-0.002 0.035-0.003 0.069-0.003 0.104 0 1.118 0.932 2.027 2.078 2.027zM1.009 20.468h0.787v0.984h-0.787v2.192c0 0.029 0.024 0.052 0.054 0.052h4.144c0.004-0.024 0.009-0.048 0.014-0.072 0.003-0.017 0.006-0.034 0.010-0.051 0.008-0.038 0.017-0.075 0.027-0.112 0.002-0.009 0.004-0.018 0.006-0.026 0.012-0.046 0.025-0.090 0.040-0.135 0.004-0.014 0.009-0.028 0.014-0.041 0.011-0.031 0.021-0.062 0.032-0.093 0.006-0.017 0.013-0.034 0.020-0.051 0.011-0.027 0.021-0.054 0.032-0.080 0.008-0.018 0.016-0.036 0.024-0.054 0.011-0.025 0.023-0.050 0.035-0.074 0.008-0.018 0.018-0.036 0.027-0.054 0.012-0.024 0.025-0.048 0.038-0.072 0.010-0.017 0.019-0.035 0.029-0.052 0.014-0.024 0.027-0.047 0.042-0.070 0.010-0.017 0.020-0.033 0.031-0.050 0.015-0.024 0.030-0.047 0.046-0.070 0.010-0.016 0.021-0.032 0.031-0.046 0.017-0.025 0.035-0.049 0.053-0.073 0.010-0.013 0.019-0.027 0.029-0.040 0.024-0.031 0.049-0.062 0.074-0.092 0.004-0.006 0.008-0.011 0.013-0.016 0.030-0.035 0.061-0.070 0.092-0.104 0.010-0.011 0.020-0.021 0.030-0.032 0.022-0.023 0.044-0.046 0.067-0.068 0.013-0.013 0.026-0.025 0.040-0.037 0.021-0.020 0.041-0.039 0.063-0.058 0.014-0.013 0.029-0.025 0.044-0.038 0.021-0.018 0.042-0.035 0.063-0.053 0.015-0.013 0.031-0.025 0.046-0.037 0.021-0.017 0.043-0.033 0.065-0.050 0.016-0.012 0.032-0.024 0.048-0.035 0.022-0.016 0.045-0.032 0.067-0.047 0.017-0.011 0.033-0.022 0.049-0.033 0.024-0.016 0.048-0.031 0.072-0.045 0.016-0.010 0.032-0.020 0.048-0.029 0.027-0.016 0.054-0.031 0.081-0.046 0.014-0.008 0.028-0.016 0.042-0.023 0.038-0.020 0.077-0.040 0.117-0.058 0.003-0.002 0.006-0.004 0.010-0.005 0.043-0.020 0.086-0.039 0.13-0.057 0.014-0.006 0.029-0.011 0.043-0.017 0.030-0.012 0.060-0.024 0.091-0.035 0.017-0.006 0.035-0.012 0.053-0.018 0.027-0.009 0.055-0.019 0.084-0.028 0.019-0.006 0.038-0.011 0.057-0.017 0.027-0.008 0.055-0.016 0.082-0.023 0.020-0.005 0.040-0.010 0.060-0.015 0.027-0.007 0.055-0.013 0.083-0.018 0.020-0.004 0.040-0.009 0.061-0.013 0.028-0.005 0.056-0.010 0.085-0.015 0.020-0.004 0.040-0.007 0.061-0.009 0.029-0.004 0.059-0.008 0.090-0.011 0.019-0.002 0.038-0.005 0.058-0.006 0.033-0.003 0.067-0.006 0.1-0.007 0.016-0.001 0.033-0.003 0.049-0.003 0.050-0.003 0.1-0.004 0.151-0.004s0.101 0.001 0.151 0.004c0.017 0 0.033 0.002 0.049 0.003 0.033 0.002 0.067 0.004 0.1 0.007 0.019 0.002 0.039 0.004 0.058 0.006 0.030 0.004 0.060 0.007 0.090 0.011 0.021 0.003 0.040 0.006 0.060 0.009 0.029 0.004 0.057 0.009 0.085 0.015 0.021 0.004 0.041 0.008 0.061 0.013 0.028 0.006 0.055 0.012 0.083 0.018 0.020 0.005 0.040 0.010 0.060 0.015 0.027 0.007 0.055 0.015 0.082 0.023 0.019 0.006 0.038 0.011 0.057 0.017 0.028 0.009 0.056 0.018 0.084 0.028 0.018 0.006 0.036 0.012 0.053 0.018 0.031 0.011 0.061 0.023 0.091 0.035 0.014 0.006 0.029 0.011 0.043 0.017 0.044 0.018 0.087 0.037 0.13 0.057 0.004 0.002 0.007 0.003 0.010 0.005 0.040 0.019 0.078 0.038 0.117 0.058 0.014 0.007 0.028 0.015 0.042 0.023 0.027 0.015 0.054 0.030 0.081 0.046 0.016 0.009 0.032 0.019 0.048 0.029 0.024 0.015 0.048 0.030 0.072 0.045 0.016 0.011 0.032 0.022 0.049 0.033 0.023 0.015 0.045 0.031 0.067 0.047 0.016 0.011 0.032 0.023 0.048 0.035 0.022 0.016 0.044 0.033 0.065 0.050 0.016 0.012 0.031 0.025 0.046 0.037 0.021 0.017 0.042 0.035 0.063 0.053 0.015 0.013 0.029 0.025 0.044 0.038 0.021 0.019 0.042 0.039 0.063 0.059 0.013 0.012 0.026 0.024 0.039 0.037 0.023 0.022 0.045 0.046 0.067 0.069 0.010 0.010 0.020 0.020 0.030 0.031 0.031 0.034 0.062 0.068 0.092 0.104 0.004 0.005 0.008 0.010 0.012 0.015 0.025 0.031 0.051 0.062 0.075 0.094 0.010 0.013 0.019 0.026 0.029 0.039 0.018 0.024 0.036 0.049 0.054 0.074 0.010 0.015 0.021 0.031 0.031 0.046 0.016 0.023 0.031 0.046 0.046 0.070 0.010 0.017 0.021 0.033 0.031 0.050 0.014 0.023 0.028 0.047 0.042 0.070 0.010 0.017 0.019 0.035 0.029 0.052 0.013 0.024 0.026 0.048 0.038 0.072 0.009 0.018 0.017 0.035 0.026 0.053 0.012 0.025 0.023 0.050 0.035 0.076 0.008 0.017 0.016 0.035 0.023 0.052 0.012 0.027 0.022 0.054 0.033 0.081 0.006 0.016 0.013 0.033 0.019 0.050 0.012 0.031 0.022 0.063 0.033 0.095 0.004 0.013 0.009 0.026 0.013 0.039 0.014 0.045 0.027 0.091 0.040 0.136 0.002 0.007 0.003 0.015 0.005 0.022 0.010 0.039 0.019 0.078 0.028 0.117 0.004 0.016 0.006 0.032 0.009 0.048 0.005 0.025 0.010 0.049 0.015 0.074h8.717v-14.625c0-0.272 0.226-0.492 0.504-0.492h7.293c0.012 0 0.051 0 0.075-0.044s0.003-0.074-0.004-0.084l-1.578-2.31c-0.153-0.224-0.408-0.357-0.684-0.357h-13.172c-0.073 0-0.142 0.028-0.195 0.079l-0.834 0.814c-0.242 0.237-0.565 0.367-0.908 0.367h-8.686c-0.45 0-0.817 0.357-0.817 0.797v12.627z"></path>
<path d="M14.081 9.838h3.191c0.644 0 1.169 0.511 1.169 1.14v10.532c0 0.272-0.226 0.492-0.504 0.492h-4.52c-0.278 0-0.504-0.22-0.504-0.492v-10.532c-0-0.629 0.524-1.14 1.169-1.14zM13.921 21.019h3.511v-5.787h-3.511v5.787zM13.921 14.248h3.511v-3.269c0-0.086-0.072-0.156-0.16-0.156h-3.191c-0.088 0-0.16 0.070-0.16 0.156l0 3.269z"></path>
</symbol>
<symbol id="icon-camper" viewBox="0 0 32 32">
<path d="M4.188 5.050h7.239c0.061 0 0.119-0.023 0.162-0.066l0.695-0.678c0.202-0.197 0.471-0.306 0.757-0.306h10.976c0.511 0 0.986 0.248 1.269 0.663l1.316 1.925c0.187 0.273 0.204 0.623 0.045 0.912s-0.467 0.469-0.803 0.469h-5.657v0.558h2.897c0.768 0 1.459 0.445 1.76 1.134l1.696 3.879 1.486 0.58c0.794 0.31 1.306 1.048 1.306 1.882v3.592c0 0.536-0.447 0.972-0.996 0.972h-1.729c-0.201 1.189-1.262 2.1-2.538 2.1s-2.336-0.91-2.538-2.1h-9.452c-0.201 1.189-1.262 2.1-2.538 2.1s-2.336-0.91-2.538-2.1h-3.454c-0.488 0-0.885-0.387-0.885-0.864v-13.169c0-0.819 0.682-1.484 1.521-1.484zM24.071 21.847c0.955 0 1.732-0.758 1.732-1.69s-0.777-1.69-1.732-1.69c-0.955 0-1.732 0.758-1.732 1.69s0.777 1.69 1.732 1.69zM20.187 19.747h1.346c0.003-0.021 0.008-0.041 0.012-0.061 0.003-0.014 0.005-0.028 0.008-0.041 0.007-0.032 0.014-0.064 0.023-0.096 0.002-0.007 0.003-0.013 0.005-0.020 0.010-0.038 0.021-0.076 0.033-0.113 0.003-0.011 0.007-0.022 0.011-0.033 0.009-0.026 0.018-0.053 0.027-0.078 0.005-0.014 0.011-0.028 0.016-0.041 0.009-0.023 0.017-0.045 0.027-0.068 0.006-0.015 0.013-0.029 0.020-0.044 0.009-0.021 0.019-0.042 0.029-0.063 0.007-0.015 0.014-0.029 0.022-0.044 0.010-0.020 0.021-0.040 0.032-0.060 0.008-0.014 0.016-0.029 0.024-0.043 0.011-0.020 0.023-0.039 0.035-0.059 0.008-0.014 0.017-0.028 0.025-0.041 0.013-0.020 0.026-0.039 0.039-0.059 0.009-0.013 0.017-0.026 0.026-0.038 0.014-0.021 0.030-0.041 0.045-0.061 0.008-0.011 0.015-0.022 0.024-0.032 0.021-0.027 0.042-0.053 0.064-0.079 0.003-0.004 0.006-0.008 0.009-0.012 0.025-0.030 0.051-0.058 0.077-0.087 0.008-0.009 0.016-0.017 0.025-0.026 0.019-0.019 0.037-0.039 0.056-0.058 0.011-0.011 0.022-0.021 0.033-0.031 0.017-0.016 0.035-0.033 0.052-0.049 0.012-0.010 0.024-0.021 0.036-0.031 0.017-0.015 0.035-0.030 0.053-0.045l0.038-0.030c0.018-0.014 0.036-0.028 0.054-0.042 0.013-0.010 0.027-0.020 0.040-0.029 0.018-0.013 0.037-0.026 0.056-0.039 0.013-0.009 0.027-0.018 0.040-0.027 0.020-0.013 0.040-0.026 0.061-0.038 0.013-0.008 0.026-0.016 0.040-0.024 0.022-0.013 0.045-0.026 0.068-0.038 0.012-0.007 0.023-0.013 0.035-0.019 0.033-0.017 0.065-0.033 0.098-0.049 0.003-0.001 0.005-0.002 0.008-0.004 0.036-0.017 0.072-0.033 0.108-0.048 0.012-0.005 0.024-0.009 0.036-0.014 0.025-0.010 0.050-0.020 0.076-0.029 0.014-0.005 0.029-0.010 0.044-0.015 0.023-0.008 0.046-0.016 0.070-0.023 0.016-0.005 0.032-0.009 0.048-0.014 0.023-0.007 0.046-0.013 0.069-0.019 0.016-0.004 0.033-0.008 0.050-0.012 0.023-0.006 0.046-0.010 0.069-0.015 0.017-0.004 0.034-0.007 0.051-0.010 0.024-0.004 0.047-0.009 0.071-0.012 0.017-0.003 0.033-0.006 0.050-0.008 0.025-0.004 0.049-0.007 0.075-0.010 0.016-0.002 0.032-0.004 0.048-0.005 0.028-0.003 0.056-0.005 0.083-0.006 0.014-0.001 0.027-0.002 0.041-0.003 0.042-0.002 0.084-0.003 0.126-0.003s0.084 0.001 0.126 0.003c0.014 0 0.027 0.002 0.041 0.003 0.028 0.002 0.056 0.004 0.083 0.006 0.016 0.001 0.032 0.004 0.048 0.005 0.025 0.003 0.050 0.006 0.075 0.010 0.017 0.002 0.034 0.005 0.050 0.008 0.024 0.004 0.047 0.008 0.071 0.012 0.017 0.003 0.034 0.007 0.051 0.010 0.023 0.005 0.046 0.010 0.069 0.015 0.017 0.004 0.033 0.008 0.050 0.012 0.023 0.006 0.046 0.012 0.069 0.019 0.016 0.005 0.032 0.009 0.048 0.014 0.024 0.007 0.047 0.015 0.070 0.023 0.014 0.005 0.029 0.010 0.044 0.015 0.026 0.010 0.051 0.019 0.076 0.029 0.012 0.005 0.024 0.009 0.036 0.014 0.036 0.015 0.073 0.031 0.108 0.048 0.003 0.001 0.005 0.003 0.008 0.004 0.033 0.016 0.066 0.032 0.098 0.049 0.011 0.006 0.023 0.013 0.035 0.019 0.023 0.012 0.046 0.025 0.068 0.038 0.013 0.008 0.027 0.016 0.040 0.024 0.020 0.012 0.041 0.025 0.061 0.038 0.013 0.009 0.027 0.018 0.040 0.027 0.019 0.013 0.038 0.026 0.057 0.039 0.013 0.010 0.027 0.019 0.040 0.029 0.018 0.014 0.036 0.028 0.054 0.042l0.038 0.030c0.018 0.015 0.035 0.030 0.053 0.045 0.012 0.010 0.024 0.021 0.036 0.031 0.018 0.016 0.035 0.032 0.052 0.049 0.011 0.010 0.022 0.020 0.033 0.031 0.019 0.019 0.038 0.038 0.056 0.058 0.008 0.009 0.017 0.017 0.025 0.026 0.026 0.028 0.052 0.057 0.077 0.087 0.003 0.004 0.006 0.008 0.009 0.012 0.022 0.026 0.043 0.052 0.064 0.079 0.008 0.010 0.016 0.021 0.024 0.032 0.015 0.020 0.031 0.041 0.045 0.061 0.009 0.012 0.017 0.025 0.026 0.038 0.013 0.020 0.026 0.039 0.039 0.059 0.008 0.014 0.017 0.028 0.025 0.041 0.012 0.019 0.024 0.039 0.035 0.059 0.008 0.014 0.016 0.029 0.024 0.043 0.011 0.020 0.022 0.040 0.032 0.060 0.008 0.015 0.015 0.029 0.022 0.044 0.010 0.021 0.019 0.042 0.029 0.063 0.007 0.014 0.013 0.029 0.019 0.044 0.010 0.022 0.019 0.045 0.027 0.068 0.006 0.014 0.011 0.028 0.016 0.041 0.009 0.026 0.018 0.052 0.027 0.078 0.004 0.011 0.008 0.022 0.011 0.033 0.012 0.037 0.023 0.075 0.033 0.113 0.002 0.007 0.003 0.013 0.005 0.020 0.008 0.032 0.016 0.064 0.023 0.096 0.003 0.014 0.005 0.028 0.008 0.041 0.004 0.020 0.008 0.040 0.012 0.061h1.728c0.086 0 0.155-0.068 0.155-0.152v-1.718h-0.656v-0.82h0.656v-1.054c0-0.497-0.305-0.937-0.778-1.121l-1.573-0.614h-5.955v5.479zM20.187 13.448h5.4l-1.515-3.465c-0.169-0.386-0.557-0.636-0.987-0.636h-2.897v4.101zM9.544 21.847c0.955 0 1.732-0.758 1.732-1.69s-0.777-1.69-1.732-1.69c-0.030 0-0.060 0.001-0.089 0.002-0.796 0.039-1.451 0.606-1.607 1.347-0.006 0.028-0.011 0.055-0.015 0.083-0.009 0.056-0.014 0.113-0.017 0.17-0.002 0.029-0.002 0.058-0.002 0.087 0 0.932 0.777 1.69 1.732 1.69zM3.507 17.057h0.656v0.82h-0.656v1.826c0 0.024 0.020 0.044 0.045 0.044h3.453c0.003-0.020 0.008-0.040 0.012-0.060 0.003-0.014 0.005-0.028 0.008-0.042 0.007-0.032 0.014-0.063 0.022-0.094 0.002-0.007 0.003-0.015 0.005-0.022 0.010-0.038 0.021-0.075 0.033-0.113 0.004-0.012 0.008-0.023 0.011-0.034 0.009-0.026 0.018-0.052 0.027-0.077 0.005-0.014 0.011-0.028 0.016-0.042 0.009-0.022 0.018-0.045 0.027-0.067 0.006-0.015 0.013-0.030 0.020-0.045 0.009-0.021 0.019-0.041 0.029-0.062 0.007-0.015 0.015-0.030 0.022-0.045 0.010-0.020 0.021-0.040 0.031-0.060 0.008-0.014 0.016-0.029 0.024-0.043 0.011-0.020 0.023-0.039 0.035-0.058 0.008-0.014 0.017-0.028 0.026-0.042 0.012-0.020 0.025-0.039 0.038-0.058 0.008-0.013 0.017-0.026 0.026-0.039 0.014-0.021 0.030-0.041 0.044-0.061 0.008-0.011 0.016-0.022 0.025-0.033 0.020-0.026 0.041-0.051 0.062-0.077 0.004-0.005 0.007-0.009 0.011-0.013 0.025-0.030 0.051-0.058 0.077-0.087 0.008-0.009 0.017-0.017 0.025-0.026 0.018-0.019 0.037-0.038 0.056-0.057 0.011-0.011 0.022-0.021 0.033-0.031 0.017-0.016 0.034-0.032 0.052-0.049 0.012-0.010 0.024-0.021 0.036-0.032 0.017-0.015 0.035-0.030 0.052-0.044 0.013-0.010 0.026-0.021 0.039-0.031 0.017-0.014 0.036-0.028 0.054-0.041 0.013-0.010 0.027-0.020 0.040-0.029 0.019-0.013 0.037-0.026 0.056-0.039 0.014-0.009 0.027-0.018 0.041-0.027 0.020-0.013 0.040-0.026 0.060-0.038 0.013-0.008 0.027-0.016 0.040-0.024 0.022-0.013 0.045-0.026 0.068-0.038 0.012-0.007 0.023-0.013 0.035-0.019 0.032-0.017 0.064-0.033 0.097-0.049 0.003-0.001 0.005-0.003 0.008-0.004 0.036-0.017 0.072-0.033 0.108-0.048 0.012-0.005 0.024-0.009 0.036-0.014 0.025-0.010 0.050-0.020 0.076-0.029 0.014-0.005 0.029-0.010 0.044-0.015 0.023-0.008 0.046-0.016 0.070-0.023 0.016-0.005 0.032-0.009 0.048-0.014 0.023-0.007 0.046-0.013 0.069-0.019 0.017-0.004 0.033-0.008 0.050-0.012 0.023-0.006 0.046-0.010 0.069-0.015 0.017-0.004 0.034-0.007 0.051-0.010 0.024-0.004 0.047-0.009 0.071-0.012 0.017-0.003 0.033-0.006 0.050-0.008 0.025-0.004 0.049-0.007 0.075-0.010 0.016-0.002 0.032-0.004 0.048-0.005 0.028-0.003 0.055-0.005 0.083-0.006 0.014-0.001 0.027-0.002 0.041-0.003 0.042-0.002 0.084-0.003 0.126-0.003s0.084 0.001 0.126 0.003c0.014 0 0.027 0.002 0.041 0.003 0.028 0.002 0.056 0.004 0.083 0.006 0.016 0.001 0.032 0.004 0.048 0.005 0.025 0.003 0.050 0.006 0.075 0.010 0.017 0.002 0.034 0.005 0.050 0.008 0.024 0.004 0.047 0.008 0.071 0.012 0.017 0.003 0.034 0.007 0.051 0.010 0.023 0.005 0.046 0.010 0.069 0.015 0.017 0.004 0.033 0.008 0.050 0.012 0.023 0.006 0.046 0.012 0.069 0.019 0.016 0.005 0.032 0.009 0.048 0.014 0.024 0.007 0.047 0.015 0.070 0.023 0.015 0.005 0.030 0.010 0.044 0.015 0.026 0.010 0.050 0.019 0.076 0.029 0.012 0.005 0.024 0.009 0.036 0.014 0.036 0.015 0.073 0.031 0.108 0.048 0.003 0.001 0.006 0.003 0.008 0.004 0.033 0.015 0.065 0.032 0.097 0.049 0.012 0.006 0.024 0.013 0.035 0.019 0.023 0.012 0.045 0.025 0.068 0.038 0.013 0.008 0.027 0.016 0.040 0.024 0.020 0.012 0.040 0.025 0.060 0.038 0.013 0.009 0.027 0.018 0.041 0.027 0.019 0.013 0.038 0.026 0.056 0.039 0.013 0.010 0.027 0.019 0.040 0.029 0.018 0.014 0.036 0.028 0.054 0.041 0.013 0.010 0.026 0.021 0.039 0.031 0.018 0.014 0.035 0.029 0.052 0.044 0.012 0.010 0.025 0.021 0.036 0.031 0.018 0.016 0.035 0.032 0.052 0.049 0.011 0.010 0.022 0.020 0.033 0.031 0.019 0.019 0.038 0.038 0.056 0.057 0.008 0.009 0.017 0.017 0.025 0.026 0.026 0.028 0.052 0.057 0.077 0.087 0.003 0.004 0.007 0.009 0.010 0.012 0.021 0.026 0.042 0.051 0.063 0.078 0.008 0.010 0.016 0.021 0.024 0.032 0.015 0.020 0.030 0.041 0.045 0.061 0.009 0.012 0.017 0.026 0.026 0.038 0.013 0.019 0.026 0.039 0.038 0.058 0.009 0.014 0.017 0.028 0.026 0.041 0.012 0.019 0.024 0.039 0.035 0.059 0.008 0.014 0.016 0.029 0.024 0.043 0.011 0.020 0.022 0.040 0.032 0.060 0.007 0.015 0.014 0.029 0.022 0.044 0.010 0.021 0.020 0.042 0.029 0.063 0.007 0.014 0.013 0.029 0.019 0.044 0.010 0.022 0.019 0.045 0.028 0.068 0.005 0.014 0.011 0.028 0.016 0.041 0.010 0.026 0.019 0.052 0.027 0.079 0.004 0.011 0.008 0.021 0.011 0.032 0.012 0.037 0.023 0.075 0.033 0.113 0.001 0.006 0.003 0.012 0.004 0.018 0.008 0.032 0.016 0.065 0.023 0.098 0.003 0.013 0.005 0.027 0.008 0.040 0.004 0.021 0.008 0.041 0.012 0.062h7.264v-12.187c0-0.226 0.188-0.41 0.42-0.41h6.078c0.010 0 0.042 0 0.062-0.036s0.002-0.062-0.004-0.070l-1.315-1.925c-0.127-0.186-0.34-0.298-0.57-0.298h-10.976c-0.061 0-0.119 0.023-0.162 0.066l-0.695 0.678c-0.202 0.197-0.471 0.306-0.757 0.306h-7.239c-0.375 0-0.681 0.298-0.681 0.664v10.523z"></path>
<path d="M14.401 8.199h2.659c0.537 0 0.974 0.426 0.974 0.95v8.777c0 0.226-0.188 0.41-0.42 0.41h-3.766c-0.232 0-0.42-0.184-0.42-0.41v-8.777c-0-0.524 0.436-0.95 0.974-0.95zM14.267 17.516h2.926v-4.823h-2.926v4.823zM14.267 11.873h2.926v-2.724c0-0.072-0.060-0.13-0.134-0.13h-2.659c-0.074 0-0.133 0.058-0.133 0.13v2.724h0zM5.896 8.199h5.142c0.594 0 1.078 0.472 1.078 1.051v2.392c0 0.58-0.484 1.051-1.078 1.051h-5.142c-0.594 0-1.078-0.472-1.078-1.051v-2.392c0-0.58 0.484-1.051 1.078-1.051zM5.659 11.642c0 0.127 0.106 0.231 0.237 0.231h5.142c0.131 0 0.237-0.104 0.237-0.231v-2.392c0-0.127-0.106-0.231-0.237-0.231h-5.142c-0.131 0-0.237 0.104-0.237 0.231v2.392h0z"></path>
</symbol>
<symbol id="icon-Rating" viewBox="0 0 32 32">
<path stroke-linejoin="round" stroke-linecap="round" stroke-miterlimit="4" stroke-width="2" d="M5.333 5.333l3.333 3.333M18 8.667c-1.242-1.217-2.914-1.895-4.653-1.886s-3.404 0.703-4.634 1.933-1.924 2.895-1.933 4.634c-0.009 1.739 0.669 3.411 1.886 4.653M20 6.667l-13.333 13.333M18.667 22.667v0.013M13.333 21.333v0.013M17.333 17.333v0.013M21.333 13.333v0.013M14.667 26.667v0.013M22.667 18.667v0.013M26.667 14.667v0.013"></path>
</symbol>
<symbol id="icon-Vertical-container-1" viewBox="0 0 32 32">
<path stroke-linejoin="round" stroke-linecap="round" stroke-miterlimit="4" stroke-width="1.8" d="M24 26h-16c-2.216 0-4-1.784-4-4v-10c0-2.216 1.784-4 4-4h16c2.216 0 4 1.784 4 4v10c0 2.216-1.784 4-4 4z"></path>
<path stroke-linejoin="round" stroke-linecap="round" stroke-miterlimit="4" stroke-width="1.8" d="M12 30h8"></path>
<path stroke-linejoin="round" stroke-linecap="round" stroke-miterlimit="4" stroke-width="1.8" d="M16 8l6-6"></path>
<path stroke-linejoin="round" stroke-linecap="round" stroke-miterlimit="4" stroke-width="1.8" d="M16 8l-6-6"></path>
</symbol>
<symbol id="icon-calendar" viewBox="0 0 32 32">
<path stroke-linejoin="round" stroke-linecap="round" stroke-miterlimit="4" stroke-width="2.4" d="M25.333 5.333h-18.667c-1.473 0-2.667 1.194-2.667 2.667v18.667c0 1.473 1.194 2.667 2.667 2.667h18.667c1.473 0 2.667-1.194 2.667-2.667v-18.667c0-1.473-1.194-2.667-2.667-2.667z"></path>
<path stroke-linejoin="round" stroke-linecap="round" stroke-miterlimit="4" stroke-width="2.4" d="M21.333 2.667v5.333"></path>
<path stroke-linejoin="round" stroke-linecap="round" stroke-miterlimit="4" stroke-width="2.4" d="M10.667 2.667v5.333"></path>
<path stroke-linejoin="round" stroke-linecap="round" stroke-miterlimit="4" stroke-width="2.4" d="M4 13.333h24"></path>
</symbol>
<symbol id="icon-Vector" viewBox="0 0 32 32">
<path d="M15.646 2.286c-1.072 0-2.111 0.366-2.94 1.035s-1.398 1.601-1.608 2.636l-0.083 0.411c-0.022 0.092-0.025 0.187-0.009 0.28s0.051 0.182 0.103 0.261c0.052 0.079 0.119 0.148 0.198 0.201s0.168 0.090 0.262 0.109c0.094 0.019 0.191 0.018 0.285-0.001s0.183-0.057 0.262-0.11 0.146-0.122 0.197-0.202c0.051-0.080 0.086-0.169 0.101-0.262l0.084-0.409c0.158-0.768 0.6-1.45 1.24-1.915s1.433-0.68 2.224-0.602c0.792 0.077 1.526 0.441 2.060 1.021s0.832 1.334 0.834 2.118c0 0.84-0.339 1.645-0.941 2.238s-1.42 0.928-2.273 0.928h-10.357c-0.189 0-0.371 0.074-0.505 0.206s-0.209 0.311-0.209 0.497c0 0.187 0.075 0.365 0.209 0.497s0.316 0.206 0.505 0.206h10.357c1.211-0.029 2.363-0.524 3.21-1.377s1.32-2 1.321-3.193-0.473-2.339-1.319-3.194c-0.846-0.854-1.997-1.349-3.209-1.379zM23.857 8.615c-0.947 0-1.856 0.37-2.525 1.030s-1.046 1.554-1.046 2.487c0 0.187 0.075 0.365 0.209 0.497s0.316 0.206 0.505 0.206 0.371-0.074 0.505-0.206c0.134-0.132 0.209-0.311 0.209-0.497 0-0.417 0.126-0.825 0.361-1.172s0.57-0.617 0.962-0.777c0.392-0.16 0.822-0.201 1.238-0.12s0.797 0.282 1.097 0.577c0.3 0.295 0.504 0.671 0.587 1.080s0.040 0.834-0.122 1.219-0.437 0.715-0.789 0.947c-0.352 0.232-0.767 0.356-1.191 0.356h-18.571c-0.189 0-0.371 0.074-0.505 0.206s-0.209 0.311-0.209 0.497c0 0.187 0.075 0.366 0.209 0.497s0.316 0.206 0.505 0.206h13.929c0.474 0.001 0.927 0.187 1.262 0.518s0.521 0.778 0.521 1.244c-0.001 0.466-0.19 0.913-0.526 1.242s-0.79 0.513-1.264 0.512c-0.427 0-0.84-0.148-1.166-0.419s-0.544-0.647-0.616-1.061l-0.007-0.042c-0.013-0.093-0.045-0.183-0.093-0.264s-0.113-0.152-0.19-0.207-0.165-0.096-0.258-0.118c-0.093-0.022-0.189-0.025-0.284-0.010s-0.185 0.049-0.265 0.1c-0.081 0.050-0.15 0.116-0.205 0.194s-0.092 0.165-0.112 0.257c-0.019 0.092-0.020 0.187-0.002 0.28l0.007 0.042c0.127 0.742 0.517 1.417 1.101 1.903s1.324 0.753 2.089 0.753c0.853 0 1.672-0.333 2.276-0.926s0.944-1.398 0.946-2.239c0-0.651-0.2-1.256-0.541-1.758h1.97c0.947 0 1.856-0.37 2.525-1.030s1.046-1.554 1.046-2.487-0.376-1.827-1.046-2.487c-0.67-0.659-1.578-1.030-2.525-1.030z"></path>
<path d="M15.646 2.286l0.141-5.713-0.071-0.002h-0.071l0.001 5.714zM11.097 5.957l-5.6-1.139-0.002 0.009 5.601 1.13zM11.014 6.368l5.557 1.332 0.024-0.101 0.021-0.101-5.601-1.13zM12.414 6.643l-5.597-1.152-0.022 0.105-0.018 0.106 5.636 0.941zM12.498 6.234v0zM18.857 6.856h5.714v-0.014l-5.714 0.014zM15.643 10.022v5.714h0.002l-0.002-5.714zM4.571 10.725v0zM15.643 11.429v5.714h0.069l0.069-0.002-0.138-5.713zM21.714 12.132v0zM4.571 14.945v0zM19.214 15.648l0.011-5.714h-0.011v5.714zM19.207 19.165l0.011-5.714h-0.015l0.004 5.714zM17.426 17.685l-5.634 0.954 0.002 0.010 0.002 0.010 5.631-0.973zM17.419 17.643l-5.661 0.779 0.012 0.088 0.015 0.087 5.634-0.954zM16.010 17.874l5.634-0.954-0.014-0.085-0.017-0.085-5.603 1.124zM16.017 17.916l-5.634 0.954 0.002 0.010 5.632-0.963zM19.207 20.571l0.003-5.714h-0.004l0.001 5.714zM22.429 17.407l5.714 0.010v-0.010h-5.714zM21.887 15.648v-5.714h-10.795l6.070 8.927 4.726-3.213zM15.644-3.429c-2.369 0.001-4.676 0.808-6.528 2.303l7.178 8.893c-0.194 0.156-0.423 0.232-0.647 0.232l-0.002-11.429zM9.116-1.126c-1.854 1.496-3.14 3.593-3.619 5.943l11.199 2.279c-0.057 0.28-0.207 0.514-0.402 0.671l-7.178-8.893zM5.496 4.827l-0.083 0.411 11.203 2.26 0.083-0.411-11.203-2.26zM5.457 5.035c-0.204 0.849-0.231 1.73-0.082 2.591l11.26-1.957c0.117 0.674 0.095 1.365-0.064 2.030l-11.114-2.664zM5.376 7.626c0.15 0.86 0.473 1.678 0.946 2.404l9.573-6.243c0.37 0.567 0.623 1.207 0.74 1.881l-11.26 1.957zM6.322 10.031c0.473 0.726 1.087 1.345 1.799 1.823l6.373-9.487c0.554 0.372 1.032 0.854 1.402 1.421l-9.573 6.243zM8.121 11.854c0.712 0.478 1.51 0.807 2.345 0.972l2.208-11.213c0.647 0.127 1.266 0.383 1.82 0.755l-6.373 9.487zM10.465 12.825c0.835 0.164 1.695 0.162 2.529-0.008l-2.28-11.199c0.646-0.132 1.312-0.134 1.959-0.006l-2.208 11.213zM12.994 12.817c0.834-0.17 1.63-0.504 2.339-0.987l-6.434-9.445c0.551-0.375 1.169-0.635 1.815-0.766l2.28 11.199zM15.333 11.83c0.709-0.483 1.318-1.106 1.787-1.835l-9.614-6.18c0.366-0.57 0.841-1.055 1.393-1.431l6.434 9.445zM17.12 9.995c0.469-0.73 0.787-1.549 0.931-2.411l-11.272-1.883c0.113-0.675 0.362-1.317 0.728-1.887l9.614 6.18zM18.011 7.796l0.084-0.409-11.194-2.305-0.084 0.409 11.194 2.305zM18.095 7.389c-0.132 0.642-0.497 1.19-0.997 1.554l-6.718-9.246c-1.78 1.293-3.029 3.207-3.478 5.383l11.193 2.309zM17.098 8.942c-0.497 0.361-1.099 0.52-1.691 0.462l1.112-11.374c-2.175-0.213-4.361 0.375-6.139 1.666l6.718 9.246zM15.407 9.404c-0.592-0.058-1.159-0.331-1.585-0.793l8.402-7.747c-1.494-1.621-3.53-2.622-5.706-2.835l-1.112 11.374zM13.822 8.612c-0.427-0.464-0.678-1.083-0.68-1.742l11.429-0.028c-0.006-2.225-0.85-4.354-2.347-5.977l-8.402 7.747zM13.143 6.856c0-0.704 0.285-1.362 0.763-1.833l8.020 8.142c1.683-1.658 2.646-3.926 2.646-6.309h-11.429zM13.906 5.023c0.475-0.468 1.1-0.715 1.735-0.715l0.005 11.429c2.339-0.001 4.6-0.916 6.28-2.571l-8.020-8.142zM15.643 4.308h-10.357v11.429h10.357v-11.429zM5.286 4.308c-1.677 0-3.302 0.655-4.514 1.848l8.018 8.144c-0.944 0.93-2.206 1.436-3.504 1.436v-11.429zM0.771 6.156c-1.215 1.196-1.914 2.838-1.914 4.569h11.429c0 1.358-0.549 2.642-1.496 3.575l-8.018-8.144zM-1.143 10.725c0 1.731 0.699 3.373 1.914 4.569l8.018-8.144c0.947 0.933 1.496 2.217 1.496 3.575h-11.429zM0.771 15.294c1.212 1.193 2.838 1.848 4.514 1.848v-11.429c1.298 0 2.56 0.507 3.504 1.436l-8.018 8.144zM5.286 17.143h10.357v-11.429h-10.357v11.429zM15.781 17.141c2.674-0.064 5.235-1.155 7.13-3.067l-8.116-8.046c0.202-0.204 0.459-0.306 0.71-0.312l0.276 11.425zM22.911 14.074c1.898-1.914 2.976-4.502 2.977-7.214l-11.429-0.004c0-0.326 0.13-0.622 0.335-0.829l8.116 8.046zM25.888 6.86c0.001-2.712-1.076-5.3-2.972-7.216l-8.121 8.041c-0.205-0.207-0.335-0.503-0.335-0.829l11.429 0.004zM22.915-0.356c-1.894-1.913-4.454-3.005-7.128-3.071l-0.283 11.425c-0.252-0.006-0.508-0.109-0.71-0.313l8.121-8.041zM23.857 2.901c-2.434 0-4.787 0.951-6.535 2.672l8.018 8.144c-0.408 0.402-0.944 0.613-1.484 0.613v-11.429zM17.323 5.574c-1.751 1.724-2.751 4.081-2.751 6.558h11.429c0 0.612-0.248 1.18-0.659 1.585l-8.018-8.144zM14.571 12.132c0 1.731 0.699 3.373 1.914 4.569l8.018-8.144c0.947 0.933 1.496 2.217 1.496 3.575h-11.429zM16.486 16.701c1.212 1.194 2.838 1.848 4.514 1.848v-11.429c1.298 0 2.56 0.507 3.504 1.436l-8.018 8.144zM21 18.549c1.677 0 3.302-0.655 4.514-1.848l-8.018-8.144c0.944-0.93 2.206-1.436 3.504-1.436v11.429zM25.514 16.701c1.215-1.197 1.914-2.838 1.914-4.569h-11.429c0-1.358 0.549-2.642 1.496-3.575l8.018 8.144zM27.429 12.132c0 0.733-0.221 1.442-0.625 2.037l-9.457-6.418c-0.875 1.289-1.347 2.814-1.347 4.381h11.429zM26.804 14.168c-0.403 0.594-0.966 1.043-1.609 1.305l-4.316-10.582c-1.426 0.581-2.658 1.572-3.532 2.86l9.457 6.418zM25.195 15.474c-0.642 0.262-1.343 0.329-2.018 0.197l2.197-11.216c-1.507-0.295-3.070-0.144-4.494 0.437l4.316 10.582zM23.177 15.67c-0.676-0.132-1.309-0.461-1.814-0.959l8.018-8.144c-1.104-1.087-2.501-1.818-4.008-2.113l-2.197 11.216zM21.363 14.712c-0.506-0.498-0.861-1.144-1.006-1.86l11.202-2.263c-0.31-1.535-1.073-2.932-2.178-4.021l-8.018 8.144zM20.358 12.852c-0.145-0.717-0.070-1.459 0.212-2.128l10.534 4.432c0.606-1.441 0.766-3.031 0.456-4.566l-11.202 2.263zM20.57 10.723c0.281-0.669 0.751-1.226 1.337-1.611l6.281 9.548c1.291-0.849 2.31-2.065 2.916-3.505l-10.534-4.432zM21.907 9.112c0.585-0.385 1.263-0.585 1.95-0.585v11.429c1.534 0 3.041-0.448 4.331-1.296l-6.281-9.548zM23.857 8.527h-18.571v11.429h18.571v-11.429zM5.286 8.527c-1.677 0-3.302 0.655-4.514 1.848l8.018 8.144c-0.944 0.93-2.206 1.436-3.504 1.436v-11.429zM0.771 10.376c-1.215 1.196-1.914 2.838-1.914 4.569h11.429c0 1.358-0.549 2.642-1.496 3.575l-8.018-8.144zM-1.143 14.945c0 1.731 0.699 3.373 1.914 4.569l8.018-8.144c0.947 0.933 1.496 2.217 1.496 3.574h-11.429zM0.771 19.514c1.212 1.194 2.838 1.848 4.514 1.848v-11.429c1.298 0 2.56 0.507 3.504 1.436l-8.018 8.144zM5.286 21.363h13.929v-11.429h-13.929v11.429zM19.203 21.363c-1.014-0.002-2.003-0.4-2.744-1.133l8.035-8.128c-1.41-1.394-3.307-2.164-5.268-2.168l-0.022 11.429zM16.459 20.23c-0.745-0.736-1.179-1.753-1.176-2.831l11.429 0.023c0.004-2.011-0.804-3.922-2.218-5.32l-8.035 8.128zM15.282 17.398c0.002-1.078 0.44-2.093 1.188-2.826l8.002 8.16c1.419-1.391 2.235-3.3 2.239-5.31l-11.429-0.023zM16.47 14.573c0.745-0.73 1.735-1.124 2.749-1.122l-0.023 11.429c1.961 0.004 3.86-0.759 5.276-2.147l-8.002-8.16zM19.203 13.451c0.899-0.001 1.782 0.312 2.49 0.9l-7.302 8.791c1.36 1.13 3.069 1.739 4.821 1.738l-0.008-11.429zM21.693 14.35c0.71 0.59 1.202 1.423 1.364 2.362l-11.262 1.946c0.305 1.767 1.233 3.352 2.595 4.483l7.302-8.791zM23.060 16.731l-0.007-0.042-11.268 1.907 0.007 0.042 11.268-1.907zM23.080 16.864c-0.119-0.863-0.412-1.69-0.858-2.432l-9.792 5.893c-0.349-0.58-0.578-1.227-0.672-1.903l11.322-1.558zM22.221 14.432c-0.446-0.741-1.035-1.381-1.728-1.884l-6.717 9.246c-0.539-0.391-0.998-0.89-1.347-1.469l9.792-5.893zM20.493 12.548c-0.693-0.503-1.476-0.861-2.303-1.056l-2.627 11.123c-0.641-0.151-1.249-0.429-1.788-0.82l6.717-9.246zM18.191 11.492c-0.826-0.195-1.683-0.225-2.521-0.088l1.847 11.278c-0.649 0.106-1.313 0.083-1.953-0.068l2.627-11.123zM15.67 11.404c-0.838 0.137-1.643 0.439-2.368 0.892l6.052 9.695c-0.563 0.352-1.188 0.586-1.837 0.692l-1.847-11.278zM13.302 12.296c-0.725 0.453-1.357 1.048-1.853 1.754l9.349 6.573c-0.388 0.552-0.88 1.015-1.444 1.367l-6.052-9.695zM11.449 14.050c-0.497 0.707-0.848 1.509-1.028 2.361l11.181 2.364c-0.141 0.667-0.416 1.295-0.804 1.847l-9.349-6.573zM10.421 16.412c-0.18 0.852-0.185 1.732-0.014 2.585l11.205-2.247c0.134 0.669 0.131 1.359-0.011 2.026l-11.181-2.364zM10.376 18.827l0.007 0.042 11.268-1.907-0.007-0.042-11.268 1.907zM10.385 18.879c0.359 2.097 1.457 3.982 3.078 5.331l7.312-8.783c0.452 0.376 0.771 0.913 0.875 1.525l-11.265 1.927zM13.462 24.21c1.618 1.347 3.654 2.076 5.746 2.075l-0.002-11.429c0.562-0 1.118 0.195 1.568 0.57l-7.312 8.783zM19.205 26.286c2.339 0.001 4.6-0.911 6.283-2.564l-8.009-8.153c0.474-0.466 1.099-0.712 1.731-0.712l-0.005 11.429zM25.488 23.722c1.686-1.656 2.651-3.922 2.655-6.305l-11.429-0.021c0.001-0.703 0.287-1.358 0.764-1.827l8.009 8.153zM28.143 17.407c0-1.84-0.569-3.558-1.53-4.971l-9.451 6.426c-0.278-0.409-0.447-0.917-0.447-1.455h11.429zM21.887 21.363h1.97v-11.429h-1.97v11.429zM23.857 21.363c2.434 0 4.787-0.951 6.535-2.672l-8.018-8.144c0.408-0.402 0.944-0.613 1.484-0.613v11.429zM30.392 18.69c1.751-1.724 2.751-4.081 2.751-6.558h-11.429c0-0.612 0.248-1.18 0.659-1.585l8.018 8.144zM33.143 12.132c0-2.477-1-4.834-2.751-6.558l-8.018 8.144c-0.411-0.405-0.659-0.974-0.659-1.585h11.429zM30.392 5.574c-1.748-1.721-4.1-2.672-6.535-2.672v11.429c-0.54 0-1.075-0.21-1.484-0.613l8.018-8.144z"></path>
</symbol>
<symbol id="icon-Container-1" viewBox="0 0 32 32">
<path stroke-linejoin="round" stroke-linecap="round" stroke-miterlimit="4" stroke-width="2.24" d="M3 26v-7c0.003-1.060 0.426-2.076 1.175-2.825s1.765-1.172 2.825-1.175h18c1.060 0.003 2.076 0.426 2.825 1.175s1.172 1.765 1.175 2.825v7M24 15h-18v-6.5c0.002-0.662 0.266-1.297 0.734-1.766s1.103-0.732 1.766-0.734h15c0.662 0.002 1.297 0.266 1.766 0.734s0.732 1.103 0.734 1.766v6.5h-2z"></path>
<path stroke-linejoin="round" stroke-linecap="round" stroke-miterlimit="4" stroke-width="2.24" d="M3 26v-0.5c0.001-0.397 0.16-0.778 0.441-1.059s0.662-0.44 1.059-0.441h23c0.397 0.001 0.778 0.16 1.059 0.441s0.44 0.662 0.441 1.059v0.5M7 15v-1c0.002-0.53 0.213-1.038 0.587-1.413s0.883-0.586 1.413-0.587h5c0.53 0.002 1.038 0.213 1.413 0.587s0.586 0.883 0.587 1.413M16 14v1M16 14c0.001-0.53 0.213-1.038 0.587-1.413s0.883-0.586 1.413-0.587h5c0.53 0.002 1.038 0.213 1.413 0.587s0.586 0.883 0.587 1.413v1"></path>
</symbol>
<symbol id="icon-Route" viewBox="0 0 32 32">
<path d="M9.333 2.857c-1.052 0-1.905 0.853-1.905 1.905s0.853 1.905 1.905 1.905c1.052 0 1.905-0.853 1.905-1.905s-0.853-1.905-1.905-1.905zM5.524 4.762c0-2.104 1.706-3.81 3.81-3.81s3.809 1.706 3.809 3.81-1.706 3.81-3.809 3.81c-2.104 0-3.81-1.706-3.81-3.81z"></path>
<path d="M22.667 16.191c-1.052 0-1.905 0.853-1.905 1.905s0.853 1.905 1.905 1.905c1.052 0 1.905-0.853 1.905-1.905s-0.853-1.905-1.905-1.905zM18.857 18.095c0-2.104 1.706-3.809 3.809-3.809s3.81 1.706 3.81 3.809c0 2.104-1.706 3.81-3.81 3.81s-3.809-1.706-3.809-3.81z"></path>
<path d="M14.095 4.762c0-0.526 0.426-0.952 0.952-0.952h6c2.95 0 4.014 3.86 1.419 5.306l-11.052 6.288c-0.828 0.46-0.558 1.739 0.49 1.739h5.048c0.526 0 0.952 0.426 0.952 0.952s-0.426 0.952-0.952 0.952h-5.048c-2.95 0-4.014-3.86-1.419-5.306l11.052-6.288c0.828-0.46 0.558-1.739-0.49-1.739h-6c-0.526 0-0.952-0.426-0.952-0.952z"></path>
</symbol>
<symbol id="icon-Horizontal-container" viewBox="0 0 32 32">
<path stroke-linejoin="round" stroke-linecap="round" stroke-miterlimit="4" stroke-width="2.4" d="M25.333 20v-16c-6.421 6.125-6.697 11.092-6.667 16h6.667zM25.333 20v8h-1.333v-4M10.667 5.333v22.667M6.667 5.333v4c0 1.061 0.421 2.078 1.172 2.828s1.768 1.172 2.828 1.172c1.061 0 2.078-0.421 2.828-1.172s1.172-1.768 1.172-2.828v-4"></path>
</symbol>
<symbol id="icon-Vertical-container" viewBox="0 0 32 32">
<path d="M26.36 9.64l0.013-0.013-4.96-4.96-1.413 1.413 2.813 2.813c-1.253 0.48-2.147 1.68-2.147 3.107 0 0.438 0.086 0.871 0.254 1.276s0.413 0.772 0.723 1.081c0.625 0.625 1.473 0.976 2.357 0.976 0.48 0 0.92-0.107 1.333-0.28v9.613c0 0.354-0.14 0.693-0.391 0.943s-0.589 0.391-0.943 0.391c-0.354 0-0.693-0.14-0.943-0.391s-0.391-0.589-0.391-0.943v-6c0-0.707-0.281-1.386-0.781-1.886s-1.178-0.781-1.886-0.781h-1.333v-9.333c0-0.707-0.281-1.386-0.781-1.886s-1.178-0.781-1.886-0.781h-8c-0.707 0-1.386 0.281-1.886 0.781s-0.781 1.178-0.781 1.886v21.333h13.333v-10h2v6.667c0 0.884 0.351 1.732 0.976 2.357s1.473 0.976 2.357 0.976c0.438 0 0.871-0.086 1.276-0.254s0.772-0.413 1.081-0.723c0.309-0.309 0.555-0.677 0.723-1.081s0.254-0.838 0.254-1.276v-12.667c0-0.92-0.373-1.76-0.973-2.36zM16 18v7.333h-8v-9.333h8v2zM16 13.333h-8v-6.667h8v6.667zM24 13.333c-0.354 0-0.693-0.14-0.943-0.39s-0.391-0.589-0.391-0.943 0.14-0.693 0.391-0.943c0.25-0.25 0.589-0.39 0.943-0.39s0.693 0.14 0.943 0.39c0.25 0.25 0.391 0.589 0.391 0.943s-0.14 0.693-0.391 0.943c-0.25 0.25-0.589 0.39-0.943 0.39z"></path>
</symbol>
<symbol id="icon-Container" viewBox="0 0 32 32">
<path stroke-linejoin="round" stroke-linecap="round" stroke-miterlimit="4" stroke-width="2.4" d="M22.667 14.667h2c0.53 0 1.039-0.211 1.414-0.586s0.586-0.884 0.586-1.414-0.211-1.039-0.586-1.414c-0.375-0.375-0.884-0.586-1.414-0.586h-2v6.667M22.667 22.667v5.333h1.333c0.707 0 1.386-0.281 1.886-0.781s0.781-1.178 0.781-1.886c0-0.707-0.281-1.385-0.781-1.886s-1.178-0.781-1.886-0.781h-1.333zM4 6.667c0 0.707 0.281 1.386 0.781 1.886s1.178 0.781 1.886 0.781c0.707 0 1.386-0.281 1.886-0.781s0.781-1.178 0.781-1.886c0-0.707-0.281-1.386-0.781-1.886s-1.178-0.781-1.886-0.781c-0.707 0-1.386 0.281-1.886 0.781s-0.781 1.178-0.781 1.886z"></path>
<path stroke-linejoin="round" stroke-linecap="round" stroke-miterlimit="4" stroke-width="2.4" d="M6.667 9.333v4c0 0.354 0.14 0.693 0.391 0.943s0.589 0.391 0.943 0.391h4M12 14.667v9.333c0 0.354 0.14 0.693 0.391 0.943s0.589 0.39 0.943 0.39h4M12 14.667h5.333"></path>
</symbol>
<symbol id="icon-Users" viewBox="0 0 32 32">
<path d="M9.067 24.133h-4.4c-0.267 0-0.4-0.133-0.533-0.267s-0.267-0.4-0.133-0.667c0.8-2.267 2.8-3.6 5.067-3.6 2.8 0 5.067-2.4 5.067-5.2s-2.267-5.467-5.067-5.467c-2.8 0-5.067 2.4-5.067 5.333 0 1.333 0.533 2.667 1.333 3.6-1.733 0.933-3.067 2.4-3.867 4.4-0.267 0.933-0.133 2.133 0.533 3.067s1.6 1.467 2.667 1.467h4.4c0.8 0 1.333-0.533 1.333-1.333s-0.533-1.333-1.333-1.333zM6.667 14.267c0-1.467 1.067-2.533 2.4-2.533s2.4 1.2 2.4 2.533c0 1.467-1.067 2.533-2.4 2.533s-2.4-1.2-2.4-2.533z"></path>
<path d="M30.533 21.467c-0.933-2.533-2.8-4.4-4.933-5.467 1.2-1.067 1.867-2.667 1.867-4.533 0-3.467-2.667-6.267-5.867-6.267s-5.867 2.8-5.867 6.267c0 1.733 0.667 3.333 1.867 4.533-2.133 1.067-4 2.933-4.933 5.467-0.667 1.2-0.4 2.533 0.267 3.6s1.867 1.6 3.067 1.6h11.067c1.2 0 2.4-0.667 3.067-1.6 0.8-1.067 0.933-2.4 0.4-3.6zM18.267 11.6c0-2 1.467-3.6 3.2-3.6s3.2 1.6 3.2 3.6-1.467 3.6-3.2 3.6c-1.733 0-3.2-1.733-3.2-3.6zM27.867 23.6c-0.133 0.133-0.4 0.533-0.8 0.533h-11.067c-0.533 0-0.8-0.4-0.8-0.533-0.133-0.133-0.4-0.667-0.133-1.2 1.067-2.8 3.733-4.667 6.533-4.667s5.467 1.867 6.533 4.667c0.133 0.533-0.133 1.067-0.267 1.2z"></path>
</symbol>
<symbol id="icon-bathroom-svgrepo-com" viewBox="0 0 32 32">
<path d="M29 17.5h-24v-11.25c0-0.003 0-0.006 0-0.009 0-0.888 0.361-1.691 0.944-2.271l0.025-0.025c0.584-0.584 1.391-0.945 2.283-0.945 0.501 0 0.976 0.114 1.399 0.318l-0.019-0.008c-0.444 0.727-0.707 1.607-0.707 2.548 0 1.363 0.551 2.597 1.443 3.491l0.684 0.684-1.26 1.26 1.414 1.414 9.5-9.5-1.414-1.414-1.26 1.26-0.684-0.684c-0.894-0.892-2.128-1.443-3.49-1.443-1.054 0-2.031 0.33-2.834 0.892l0.016-0.011c-0.791-0.506-1.755-0.807-2.79-0.807-1.443 0-2.749 0.585-3.695 1.53l-0.025 0.025c-0.945 0.94-1.53 2.242-1.53 3.681 0 0.005 0 0.010 0 0.015v-0.001 11.25h-2v2h2v1.919c0 0 0 0 0 0 0 0.17 0.028 0.332 0.080 0.484l-0.003-0.011 1.861 5.581c0.204 0.601 0.763 1.026 1.422 1.026 0 0 0.001 0 0.001 0h0.806l-0.729 2.5h2.083l0.729-2.5h13.006l0.75 2.5h2.087l-0.75-2.5h1.296c0 0 0.001 0 0.002 0 0.658 0 1.218-0.425 1.419-1.015l0.003-0.011 1.86-5.581c0.049-0.142 0.077-0.305 0.077-0.474v-1.919h2v-2zM11.783 3.783c0.532-0.531 1.265-0.859 2.076-0.859s1.544 0.328 2.076 0.859l0.684 0.684-4.152 4.152-0.684-0.684c-0.53-0.532-0.859-1.266-0.859-2.076s0.328-1.544 0.859-2.076l-0 0zM27 21.337l-1.721 5.163h-18.558l-1.721-5.163v-1.837h22z"></path>
</symbol>
<symbol id="icon-kitchen-room-svgrepo-com" viewBox="0 0 32 32">
<path d="M5.988 0.699c-0.367 0-0.665 0.298-0.665 0.665v0 2.318l-4.379 3.128c-0.169 0.122-0.278 0.319-0.278 0.541 0 0 0 0.001 0 0.001v-0 2.661c0 0.367 0.298 0.665 0.665 0.665h14.638c0.367-0 0.665-0.298 0.665-0.665v0-2.661c0-0 0-0.001 0-0.001 0-0.222-0.109-0.419-0.276-0.54l-0.002-0.001-4.379-3.127v-2.32c-0-0.367-0.298-0.665-0.665-0.665h-5.323zM6.654 2.029h3.992v1.996c0 0 0 0.001 0 0.001 0 0.222 0.109 0.419 0.276 0.54l0.002 0.001 4.379 3.127v1.654h-13.307v-1.654l4.379-3.127c0.169-0.122 0.278-0.319 0.278-0.541 0-0 0-0.001 0-0.001v0-1.996zM3.659 14.671c-0.435 0-0.8 0.278-0.937 0.665h-2.057c-0.367 0-0.665 0.298-0.665 0.665v0 14.638c0 0.367 0.298 0.665 0.665 0.665h30.67c0.367-0 0.665-0.298 0.665-0.665v0-14.638c-0-0.367-0.298-0.665-0.665-0.665h-16.759c-0.137-0.387-0.502-0.665-0.937-0.665h-9.98zM1.331 16.667h14.701v13.307h-14.701v-13.307zM17.363 16.667h13.307v3.992h-13.307v-3.992zM3.327 17.998c-0.367 0-0.665 0.298-0.665 0.665v0 9.315c0 0.367 0.298 0.665 0.665 0.665h10.646c0.367-0 0.665-0.298 0.665-0.665v0-9.315c-0-0.367-0.298-0.665-0.665-0.665h-10.646zM19.96 17.998c-0.003-0-0.006-0-0.009-0-0.367 0-0.665 0.298-0.665 0.665s0.298 0.665 0.665 0.665c0.003 0 0.007-0 0.010-0h7.984c0.003 0 0.006 0 0.009 0 0.367 0 0.665-0.298 0.665-0.665s-0.298-0.665-0.665-0.665c-0.003 0-0.007 0-0.010 0h-7.984zM3.992 19.328h9.315v7.984h-9.315v-7.984zM17.363 21.99h13.307v7.984h-13.307v-7.984zM19.95 23.977c-0.363 0.006-0.655 0.302-0.655 0.665 0 0.003 0 0.006 0 0.010v-0 3.327c-0 0.003-0 0.006-0 0.009 0 0.367 0.298 0.665 0.665 0.665s0.665-0.298 0.665-0.665c0-0.003-0-0.007-0-0.010v0-3.327c0-0.003 0-0.006 0-0.009 0-0.367-0.298-0.665-0.665-0.665-0.004 0-0.007 0-0.011 0h0.001z"></path>
</symbol>
<symbol id="icon-bed-svgrepo-com" viewBox="0 0 32 32">
<path d="M3.2 6.4c-1.053 0-1.92 0.867-1.92 1.92v9.72c0.002 0.040 0.010 0.080 0.020 0.12 0 0.008 0 0.012 0 0.020-0.288 0.453-0.522 0.935-0.7 1.46-0.398 1.172-0.568 2.517-0.6 4.040v0.64c0 0.020 0 0.040 0 0.060v7.62h4.48v-2.56c0-0.532 0.13-0.81 0.3-0.98s0.447-0.3 0.98-0.3h20.48c0.532 0 0.81 0.13 0.98 0.3s0.3 0.448 0.3 0.98v2.56h4.48v-7.58c0.002-0.032 0.002-0.067 0-0.1 0-0.22 0.005-0.427 0-0.64-0.032-1.523-0.203-2.867-0.6-4.040-0.177-0.52-0.415-0.992-0.7-1.44 0.012-0.052 0.020-0.105 0.020-0.16v-9.72c0-1.053-0.867-1.92-1.92-1.92zM3.2 7.68h25.6c0.36 0 0.64 0.28 0.64 0.64v8.42c-0.157-0.133-0.325-0.26-0.5-0.38-0.427-0.295-0.892-0.57-1.42-0.8v-2.76c0-0.45-0.295-0.8-0.62-1.020s-0.723-0.373-1.22-0.5c-0.995-0.255-2.393-0.4-4.24-0.4s-3.245 0.145-4.24 0.4c-0.485 0.125-0.88 0.268-1.2 0.48-0.32-0.213-0.715-0.355-1.2-0.48-0.995-0.255-2.393-0.4-4.24-0.4s-3.245 0.145-4.24 0.4c-0.497 0.127-0.895 0.28-1.22 0.5s-0.62 0.57-0.62 1.020v2.76c-0.527 0.23-0.993 0.505-1.42 0.8-0.175 0.12-0.343 0.247-0.5 0.38v-8.42c0-0.36 0.28-0.64 0.64-0.64zM10.56 12.16c1.78 0 3.1 0.15 3.92 0.36 0.41 0.105 0.693 0.232 0.82 0.32 0.053 0.035 0.055 0.040 0.060 0.040v1.2c-4.207 0.027-7.322 0.342-9.6 1.040v-2.24c0.005 0 0.008-0.005 0.060-0.040 0.128-0.088 0.41-0.215 0.82-0.32 0.82-0.21 2.14-0.36 3.92-0.36zM21.44 12.16c1.78 0 3.1 0.15 3.92 0.36 0.41 0.105 0.692 0.232 0.82 0.32 0.052 0.035 0.055 0.040 0.060 0.040v2.24c-2.277-0.697-5.393-1.012-9.6-1.040v-1.2c0.005 0 0.008-0.005 0.060-0.040 0.128-0.088 0.41-0.215 0.82-0.32 0.82-0.21 2.14-0.36 3.92-0.36zM15.88 15.36c0.068 0.010 0.132 0.010 0.2 0 0.020 0 0.040 0 0.060 0 6.405 0.010 10.105 0.68 12.080 2.040 0.995 0.685 1.598 1.535 1.98 2.66 0.332 0.98 0.468 2.188 0.5 3.62h-29.4c0.032-1.433 0.167-2.64 0.5-3.62 0.382-1.125 0.985-1.975 1.98-2.66 1.975-1.363 5.682-2.033 12.1-2.040zM1.28 24.96h29.44v5.76h-1.92v-1.28c0-0.747-0.19-1.43-0.66-1.9s-1.152-0.66-1.9-0.66h-20.48c-0.748 0-1.43 0.19-1.9 0.66s-0.66 1.152-0.66 1.9v1.28h-1.92z"></path>
</symbol>
<symbol id="icon-tv-television-svgrepo-com" viewBox="0 0 32 32">
<path d="M30 28c0 1.104-0.896 2-2 2h-24c-1.104 0-2-0.896-2-2v-16c0-1.104 0.896-2 2-2h24c1.104 0 2 0.896 2 2v16zM28 8h-9.254l8.772-6.035c0.463-0.319 0.595-0.977 0.295-1.469s-0.918-0.633-1.382-0.314c0 0-9.61 6.635-10.422 7.125l-10.44-7.125c-0.463-0.319-1.083-0.178-1.382 0.314-0.3 0.492-0.168 1.15 0.295 1.469l8.772 6.035h-9.254c-2.209 0-4 1.791-4 4v16c0 2.209 1.791 4 4 4h24c2.209 0 4-1.791 4-4v-16c0-2.209-1.791-4-4-4v0zM27 23h-4c-0.553 0-1 0.447-1 1s0.447 1 1 1h4c0.553 0 1-0.447 1-1s-0.447-1-1-1v0zM18 25c0 0.553-0.447 1-1 1h-10c-0.553 0-1-0.447-1-1v-10c0-0.552 0.447-1 1-1h10c0.553 0 1 0.448 1 1v10zM18 12h-12c-1.104 0-2 0.896-2 2v12c0 1.104 0.896 2 2 2h12c1.104 0 2-0.896 2-2v-12c0-1.104-0.896-2-2-2v0zM27 26h-4c-0.553 0-1 0.447-1 1s0.447 1 1 1h4c0.553 0 1-0.447 1-1s-0.447-1-1-1v0zM24 14h2v2h-2v-2zM25 12c-1.657 0-3 1.343-3 3s1.343 3 3 3c1.657 0 3-1.343 3-3s-1.343-3-3-3v0z"></path>
</symbol>
<symbol id="icon-microwave-svgrepo-com" viewBox="0 0 32 32">
<path d="M1.92 5.12c-1.052 0-1.92 0.867-1.92 1.92v17.92c0 1.052 0.868 1.92 1.92 1.92h1.28v0.64c0 0.7 0.58 1.28 1.28 1.28h1.92c0.7 0 1.28-0.58 1.28-1.28v-0.64h16.64v0.64c0 0.7 0.58 1.28 1.28 1.28h1.92c0.7 0 1.28-0.58 1.28-1.28v-0.64h1.28c1.052 0 1.92-0.867 1.92-1.92v-17.92c0-1.053-0.867-1.92-1.92-1.92zM1.92 6.4h28.16c0.36 0 0.64 0.28 0.64 0.64v17.92c0 0.36-0.28 0.64-0.64 0.64h-5c-0.085-0.017-0.175-0.017-0.26 0h-20.86c-0.085-0.017-0.175-0.017-0.26 0h-1.78c-0.36 0-0.64-0.28-0.64-0.64v-17.92c0-0.36 0.28-0.64 0.64-0.64zM3.2 8.32v15.36h22.4v-15.36zM4.48 9.6h19.84v12.8h-19.84zM28.16 10.24c-0.707 0-1.28 0.572-1.28 1.28s0.573 1.28 1.28 1.28c0.707 0 1.28-0.572 1.28-1.28s-0.573-1.28-1.28-1.28zM21.86 12.76c-0.128-0.002-0.253 0.033-0.36 0.1 0 0-2.962 1.22-4.78 1.22-0.908 0-1.52-0.26-2.26-0.58s-1.617-0.7-2.8-0.7c-2.365 0-4.9 1.34-4.9 1.34-0.32 0.155-0.455 0.54-0.3 0.86s0.54 0.455 0.86 0.3c0 0 2.492-1.22 4.34-1.22 0.925 0 1.543 0.26 2.28 0.58s1.61 0.7 2.78 0.7c2.343 0 5.3-1.34 5.3-1.34 0.313-0.080 0.517-0.38 0.475-0.7-0.040-0.32-0.313-0.56-0.635-0.56zM28.16 14.72c-0.707 0-1.28 0.572-1.28 1.28s0.573 1.28 1.28 1.28c0.707 0 1.28-0.573 1.28-1.28s-0.573-1.28-1.28-1.28zM21.86 16.6c-0.128-0.003-0.253 0.032-0.36 0.1 0 0-2.962 1.22-4.78 1.22-0.908 0-1.52-0.26-2.26-0.58s-1.617-0.7-2.8-0.7c-2.365 0-4.9 1.34-4.9 1.34-0.32 0.155-0.455 0.54-0.3 0.86s0.54 0.455 0.86 0.3c0 0 2.492-1.22 4.34-1.22 0.925 0 1.543 0.26 2.28 0.58s1.61 0.7 2.78 0.7c2.343 0 5.3-1.34 5.3-1.34 0.313-0.080 0.517-0.38 0.475-0.7-0.040-0.32-0.313-0.56-0.635-0.56zM28.16 19.2c-0.707 0-1.28 0.573-1.28 1.28s0.573 1.28 1.28 1.28c0.707 0 1.28-0.573 1.28-1.28s-0.573-1.28-1.28-1.28zM4.48 26.88h1.92v0.64h-1.92zM25.6 26.88h1.92v0.64h-1.92z"></path>
</symbol>
<symbol id="icon-toilet-svgrepo-com" viewBox="0 0 32 32">
<path d="M8.836 6.503c0-0.263 0.214-0.474 0.474-0.474 0.263 0 0.474 0.214 0.474 0.474v8.68c0 0.263-0.214 0.474-0.474 0.474h-5.62c-0.26 0.003-0.474-0.211-0.474-0.471v-14.164c0-0.279 0.115-0.534 0.299-0.721l0.003-0.003c0.188-0.182 0.44-0.297 0.721-0.297h4.523c0.279 0 0.536 0.115 0.721 0.302v0c0.185 0.185 0.299 0.44 0.299 0.721v1.203c0 0.263-0.214 0.474-0.474 0.474-0.263 0-0.474-0.214-0.474-0.474v-1.206c0-0.018-0.008-0.036-0.021-0.052v0 0c-0.013-0.013-0.031-0.021-0.052-0.021h-4.523c-0.021 0-0.039 0.008-0.052 0.021l-0.003 0.003c-0.013 0.013-0.021 0.031-0.021 0.052v13.688h4.672v-8.208zM8.833 26.010l-5.563-10.607c-0.12-0.232-0.031-0.516 0.201-0.638 0.070-0.036 0.146-0.055 0.219-0.055v-0.003h24.617c0.263 0 0.474 0.214 0.474 0.474 0 0.018 0 0.036-0.003 0.055-0.133 5.661-2.909 7.255-5.245 8.594-1.365 0.784-2.56 1.469-2.784 2.919l-0.003 0.013c-0.086 0.568-0.039 1.219 0.141 1.956 0.188 0.768 0.518 1.633 1 2.594 0.117 0.234 0.021 0.518-0.214 0.635-0.068 0.034-0.141 0.049-0.211 0.049h-14.859c-0.263 0-0.474-0.214-0.474-0.474 0-0.091 0.026-0.177 0.073-0.25l2.63-5.263zM4.474 15.659l5.31 10.128c0.068 0.13 0.073 0.289 0.003 0.43l-2.417 4.836h13.344c-0.339-0.753-0.586-1.456-0.745-2.107-0.211-0.865-0.263-1.638-0.159-2.32l0.003-0.016c0.294-1.901 1.674-2.693 3.25-3.596 2.063-1.182 4.503-2.583 4.755-7.352l-23.344-0.003zM9.365 26.479c-0.263 0-0.474-0.214-0.474-0.474 0-0.263 0.214-0.474 0.474-0.474h5.18c0.263 0 0.474 0.214 0.474 0.474 0 0.263-0.214 0.474-0.474 0.474h-5.18zM9.781 15.255c-0.039 0.258-0.281 0.438-0.539 0.398s-0.438-0.281-0.398-0.539c0.076-0.49 0.198-0.932 0.37-1.32 0.18-0.404 0.411-0.745 0.695-1.023 0.922-0.901 2.094-0.88 3.214-0.859 0.099 0.003 0.195 0.003 0.448 0.003h10.146c2.406-0.016 5.073-0.034 5.060 3.385 0 0.26-0.211 0.471-0.471 0.471s-0.471-0.211-0.471-0.471c0.010-2.469-2.156-2.453-4.109-2.44-0.294 0.003-0.286 0.005-0.461 0.005l-10.154-0.008c-0.927-0.016-1.898-0.034-2.539 0.594-0.201 0.195-0.362 0.438-0.492 0.727-0.135 0.302-0.234 0.661-0.297 1.078v0zM7.208 2.909c0.737 0 1.333 0.596 1.333 1.333s-0.596 1.333-1.333 1.333c-0.737 0-1.333-0.596-1.333-1.333s0.599-1.333 1.333-1.333v0zM8.542 4.716c-0.263 0-0.474-0.214-0.474-0.474 0-0.263 0.214-0.474 0.474-0.474h3.198c0.263 0 0.474 0.214 0.474 0.474 0 0.263-0.214 0.474-0.474 0.474h-3.198z"></path>
</symbol>
<symbol id="icon-ion_water-outline" viewBox="0 0 32 32">
<path stroke-linejoin="miter" stroke-linecap="butt" stroke-miterlimit="10" stroke-width="2.4" d="M25 20c0 5.523-3.477 9-9 9s-9-3.477-9-9c0-5.927 6.452-13.928 8.431-16.242 0.070-0.082 0.158-0.148 0.256-0.194s0.205-0.069 0.314-0.069c0.108 0 0.215 0.023 0.314 0.069s0.186 0.111 0.256 0.194c1.978 2.314 8.43 10.316 8.43 16.242z"></path>
<path stroke-linejoin="round" stroke-linecap="round" stroke-miterlimit="4" stroke-width="2.4" d="M21.5 20.5c0 1.193-0.474 2.338-1.318 3.182s-1.988 1.318-3.182 1.318"></path>
</symbol>
<symbol id="icon-gas-gas-station-svgrepo-com" viewBox="0 0 32 32">
<path d="M17.179 6.167h-8.010c-0.276 0-0.5 0.224-0.5 0.5v0 5.333c0 0.276 0.224 0.5 0.5 0.5v0h8.010c0.276 0 0.5-0.224 0.5-0.5v0-5.333c0-0.276-0.224-0.5-0.5-0.5v0zM16.679 11.499h-7.010v-4.332h7.010zM13.174 15.039c-0.138 0-0.263 0.056-0.354 0.147v0c-0.231 0.231-2.25 2.306-2.25 3.938 0 1.747 1.169 3.168 2.607 3.168s2.604-1.416 2.604-3.166c0-1.633-2.023-3.707-2.25-3.938-0.091-0.091-0.216-0.148-0.355-0.148-0.001 0-0.002 0-0.002 0h0zM13.174 21.293c-0.886 0-1.607-0.973-1.607-2.168 0-0.854 0.963-2.125 1.606-2.852 0.633 0.718 1.608 2.004 1.608 2.852 0 1.195-0.719 2.168-1.607 2.168zM27.253 14.071l-2.982-4.994c-0.089-0.147-0.248-0.244-0.429-0.244-0.276 0-0.5 0.224-0.5 0.5 0 0.095 0.026 0.183 0.072 0.258l-0.001-0.002 1.846 3.091c-0.716 0.386-1.194 1.131-1.194 1.987 0 1.243 1.007 2.25 2.25 2.25 0.002 0 0.005 0 0.007 0h0.008v3.421c-0.019 0.996-0.831 1.796-1.83 1.796s-1.811-0.8-1.83-1.794l-0-0.002v-6.008c-0.004-1.385-0.999-2.536-2.312-2.782l-0.018-0.003v-6.294c0-0.966-0.784-1.75-1.75-1.75v0h-10.825c-0.966 0-1.75 0.784-1.75 1.75v0 19.581h-0.214c-0.621 0-1.125 0.504-1.125 1.125v0 1.419c0 0.621 0.504 1.125 1.125 1.125v0h14.75c0.621 0 1.125-0.504 1.125-1.125v0-1.418c0-0.621-0.504-1.125-1.125-1.125v0h-0.214v-12.263c0.772 0.228 1.326 0.929 1.33 1.76v6.009c0.024 1.545 1.282 2.788 2.83 2.788s2.806-1.243 2.83-2.786l0-0.002v-6.008c0-0 0-0 0-0 0-0.095-0.027-0.185-0.073-0.26l0.001 0.002zM20.675 25.957v1.418c0 0.069-0.056 0.125-0.125 0.125v0h-14.75c-0.069 0-0.125-0.056-0.125-0.125v0-1.418c0-0.069 0.056-0.125 0.125-0.125v0h14.75c0.069 0 0.125 0.056 0.125 0.125v0zM7.014 24.832v-19.582c0-0.414 0.336-0.75 0.75-0.75v0h10.822c0.414 0 0.75 0.336 0.75 0.75v0 19.581zM26.326 15.917c-0.003 0-0.006 0-0.010 0-0.69 0-1.25-0.56-1.25-1.25 0-0.492 0.284-0.918 0.698-1.122l0.007-0.003 0.554 0.928z"></path>
</symbol>
<symbol id="icon-shower-svgrepo-com" viewBox="0 0 32 32">
<path d="M14.080 0v5.96c-3.793 0.77-6.718 3.77-7.020 7.48h-0.66c-0.020 0-0.040 0-0.060 0-0.040 0.002-0.080 0.010-0.12 0.020-0.968 0.095-1.74 0.91-1.74 1.9 0 0.955 0.72 1.74 1.64 1.88 0.020 0.003 0.040 0.017 0.060 0.020 0.040 0.010 0.080 0.017 0.12 0.020 0.035 0.003 0.065 0 0.1 0h19.2c0.020 0 0.040 0 0.060 0 0.008 0 0.012 0 0.020 0 0.035-0.003 0.065-0.017 0.1-0.020 0.968-0.095 1.74-0.91 1.74-1.9s-0.773-1.805-1.74-1.9c-0.047-0.005-0.093-0.020-0.14-0.020-0.012 0-0.027 0-0.040 0h-0.66c-0.302-3.71-3.227-6.71-7.020-7.48v-5.96h-1.28v5.78c-0.215-0.015-0.422-0.020-0.64-0.020s-0.425 0.005-0.64 0.020v-5.78zM16 7.040c4.038 0 7.29 2.827 7.64 6.4h-15.28c0.35-3.572 3.603-6.4 7.64-6.4zM6.38 14.72c0.008 0 0.013 0 0.020 0h19.2c0.020 0 0.040 0 0.060 0 0.332 0.030 0.58 0.3 0.58 0.64 0 0.348-0.258 0.62-0.6 0.64-0.012 0-0.027 0-0.040 0h-19.2c-0.020 0-0.040 0.003-0.060 0-0.333-0.030-0.58-0.3-0.58-0.64 0-0.355 0.268-0.63 0.62-0.64zM10.88 19.2c-0.707 0-1.28 0.573-1.28 1.28s0.572 1.28 1.28 1.28c0.707 0 1.28-0.573 1.28-1.28s-0.572-1.28-1.28-1.28zM16 19.2c-0.707 0-1.28 0.573-1.28 1.28s0.572 1.28 1.28 1.28c0.707 0 1.28-0.573 1.28-1.28s-0.573-1.28-1.28-1.28zM21.12 19.2c-0.707 0-1.28 0.573-1.28 1.28s0.573 1.28 1.28 1.28c0.707 0 1.28-0.573 1.28-1.28s-0.573-1.28-1.28-1.28zM8.32 24.32c-0.707 0-1.28 0.573-1.28 1.28s0.572 1.28 1.28 1.28c0.707 0 1.28-0.573 1.28-1.28s-0.572-1.28-1.28-1.28zM13.44 24.32c-0.707 0-1.28 0.573-1.28 1.28s0.572 1.28 1.28 1.28c0.707 0 1.28-0.573 1.28-1.28s-0.572-1.28-1.28-1.28zM18.56 24.32c-0.707 0-1.28 0.573-1.28 1.28s0.573 1.28 1.28 1.28c0.707 0 1.28-0.573 1.28-1.28s-0.573-1.28-1.28-1.28zM23.68 24.32c-0.707 0-1.28 0.573-1.28 1.28s0.573 1.28 1.28 1.28c0.707 0 1.28-0.573 1.28-1.28s-0.573-1.28-1.28-1.28zM5.76 29.44c-0.707 0-1.28 0.573-1.28 1.28s0.572 1.28 1.28 1.28c0.707 0 1.28-0.573 1.28-1.28s-0.572-1.28-1.28-1.28zM10.88 29.44c-0.707 0-1.28 0.573-1.28 1.28s0.572 1.28 1.28 1.28c0.707 0 1.28-0.573 1.28-1.28s-0.572-1.28-1.28-1.28zM16 29.44c-0.707 0-1.28 0.573-1.28 1.28s0.572 1.28 1.28 1.28c0.707 0 1.28-0.573 1.28-1.28s-0.573-1.28-1.28-1.28zM21.12 29.44c-0.707 0-1.28 0.573-1.28 1.28s0.573 1.28 1.28 1.28c0.707 0 1.28-0.573 1.28-1.28s-0.573-1.28-1.28-1.28zM26.24 29.44c-0.707 0-1.28 0.573-1.28 1.28s0.573 1.28 1.28 1.28c0.707 0 1.28-0.573 1.28-1.28s-0.573-1.28-1.28-1.28z"></path>
</symbol>
<symbol id="icon-cd-svgrepo-com" viewBox="0 0 32 32">
<path d="M16 1.658c-7.908 0-14.342 6.434-14.342 14.342s6.434 14.342 14.342 14.342c7.908 0 14.342-6.434 14.342-14.342s-6.434-14.342-14.342-14.342zM16 28.564c-6.928 0-12.564-5.636-12.564-12.564s5.636-12.564 12.564-12.564 12.564 5.636 12.564 12.564c0 6.928-5.636 12.564-12.564 12.564z"></path>
<path d="M16 12.657c-1.843 0-3.342 1.499-3.342 3.342s1.5 3.343 3.342 3.343c1.843 0 3.342-1.499 3.342-3.343s-1.5-3.342-3.342-3.342zM16 17.564c-0.863 0-1.564-0.701-1.564-1.564s0.702-1.564 1.564-1.564c0.862 0 1.564 0.702 1.564 1.564s-0.703 1.564-1.564 1.564z"></path>
<path d="M5.641 17.019c0.245 0 0.434-0.259 0.423-0.505-0.007-0.156-0.011-0.351-0.011-0.508 0-0.245-0.199-0.439-0.444-0.439s-0.444 0.209-0.444 0.455c0 0.171 0.004 0.363 0.012 0.532 0.011 0.238 0.208 0.465 0.444 0.465 0.007 0 0.014 0 0.021 0z"></path>
<path d="M11.101 24.66c-2.61-1.481-4.397-4.017-4.904-6.961-0.041-0.241-0.269-0.404-0.513-0.362-0.242 0.042-0.404 0.271-0.362 0.513 0.553 3.206 2.5 5.97 5.342 7.583 0.069 0.039 0.144 0.057 0.219 0.057 0.155 0 0.305-0.081 0.387-0.225 0.121-0.214 0.046-0.486-0.168-0.606z"></path>
<path d="M10.244 21.855c0.112 0 0.225-0.042 0.311-0.127 0.175-0.172 0.178-0.453 0.006-0.628-1.154-1.175-1.79-2.729-1.79-4.376 0-0.246-0.199-0.444-0.444-0.444s-0.444 0.199-0.444 0.444c0 1.881 0.726 3.656 2.045 4.998 0.087 0.088 0.202 0.133 0.317 0.133z"></path>
<path d="M11.94 22.159c-0.125-0.072-0.248-0.147-0.368-0.227-0.205-0.138-0.48-0.081-0.616 0.124s-0.080 0.48 0.124 0.616c0.137 0.092 0.278 0.178 0.422 0.26 0.069 0.039 0.144 0.058 0.219 0.058 0.155 0 0.305-0.081 0.388-0.225 0.121-0.213 0.046-0.485-0.167-0.606z"></path>
<path d="M12.539 19.565c-0.843-0.477-1.367-1.376-1.367-2.344 0-0.246-0.199-0.444-0.444-0.444s-0.444 0.199-0.444 0.444c0 1.287 0.696 2.482 1.817 3.118 0.069 0.039 0.144 0.057 0.219 0.057 0.154 0 0.305-0.081 0.387-0.226 0.121-0.214 0.046-0.485-0.167-0.606z"></path>
<path d="M22.233 6.784c-0.197-0.145-0.476-0.102-0.621 0.095s-0.102 0.476 0.096 0.621c2.881 2.116 4.411 5.639 3.992 9.195-0.028 0.243 0.145 0.464 0.39 0.493 0.017 0.003 0.035 0.004 0.052 0.004 0.222 0 0.414-0.167 0.44-0.392 0.457-3.873-1.21-7.71-4.349-10.015z"></path>
<path d="M21.208 9.403c-0.198-0.145-0.476-0.102-0.621 0.095s-0.102 0.476 0.096 0.621c1.808 1.328 2.768 3.539 2.505 5.771-0.028 0.244 0.145 0.465 0.389 0.493 0.018 0.003 0.035 0.004 0.052 0.004 0.222 0 0.415-0.166 0.44-0.392 0.3-2.549-0.796-5.075-2.862-6.591z"></path>
<path d="M20.189 11.632c-0.197-0.145-0.476-0.102-0.621 0.095s-0.102 0.476 0.096 0.621c0.78 0.573 1.195 1.527 1.081 2.489-0.028 0.244 0.145 0.465 0.389 0.493 0.018 0.002 0.035 0.003 0.052 0.003 0.222 0 0.414-0.166 0.44-0.392 0.15-1.28-0.4-2.548-1.438-3.309z"></path>
</symbol>
<symbol id="icon-radio-3-svgrepo-com" viewBox="0 0 32 32">
<path d="M5.333 4.667c-0.736 0-1.333 0.597-1.333 1.333s0.597 1.333 1.333 1.333v0c0.192-0 0.375-0.041 0.54-0.114l-0.008 0.003c0.072 0.037 0.156 0.068 0.245 0.086l0.006 0.001 15.105 3.357h-16.221c-1.277 0-2.333 1.057-2.333 2.333v14c0 1.277 1.057 2.333 2.333 2.333h22c1.277 0 2.333-1.057 2.333-2.333v-10.503c0.008-0.049 0.013-0.105 0.013-0.162s-0.005-0.113-0.014-0.168l0.001 0.006v-3.173c0-1.277-1.057-2.333-2.333-2.333h-1.724c0.036-0.099 0.057-0.214 0.057-0.333 0-0.475-0.331-0.873-0.776-0.975l-0.007-0.001-18-4c-0.012-0.003-0.031-0.007-0.050-0.010l-0.006-0.001c-0.233-0.408-0.666-0.679-1.161-0.68h-0zM5 12.667h3v2.667h-3.333v-2.333c0-0.197 0.137-0.333 0.333-0.333zM10 12.667h17c0.197 0 0.333 0.137 0.333 0.333v2.333h-17.333v-2.667zM4.667 17.333h4.169c0.049 0.008 0.105 0.013 0.162 0.013s0.113-0.005 0.168-0.014l-0.006 0.001h18.173v9.667c0 0.197-0.137 0.333-0.333 0.333h-22c-0.197 0-0.333-0.137-0.333-0.333v-9.667zM22.333 18.667c-1.139 0-2.12 0.463-2.747 1.169s-0.919 1.608-0.919 2.497c0 0.889 0.292 1.791 0.919 2.497s1.608 1.169 2.747 1.169c1.139 0 2.12-0.463 2.747-1.169s0.919-1.608 0.919-2.497c0-0.889-0.292-1.791-0.919-2.497s-1.608-1.169-2.747-1.169zM11.667 19.333c-0.552 0-1 0.448-1 1s0.448 1 1 1v0c0.552 0 1-0.448 1-1s-0.448-1-1-1v0zM22.333 20.667c0.639 0 0.991 0.204 1.253 0.497s0.414 0.725 0.414 1.169c0 0.444-0.153 0.875-0.414 1.169s-0.614 0.497-1.253 0.497c-0.639 0-0.991-0.204-1.253-0.497s-0.414-0.725-0.414-1.169c0-0.444 0.153-0.875 0.414-1.169s0.614-0.497 1.253-0.497zM8.333 21.333c-0.552 0-1 0.448-1 1s0.448 1 1 1v0c0.552 0 1-0.448 1-1s-0.448-1-1-1v0zM15 21.333c-0.552 0-1 0.448-1 1s0.448 1 1 1v0c0.552 0 1-0.448 1-1s-0.448-1-1-1v0zM11.667 23.333c-0.552 0-1 0.448-1 1s0.448 1 1 1v0c0.552 0 1-0.448 1-1s-0.448-1-1-1v0z"></path>
</symbol>
<symbol id="icon-refrigerator-svgrepo-com" viewBox="0 0 32 32">
<path d="M23.65 0h-15.3c-2.1 0-3.85 1.75-3.85 3.75v24.5c0 2 1.75 3.75 3.85 3.75h15.35c2.050 0 3.85-1.75 3.85-3.75v-24.5c-0.050-2-1.85-3.75-3.9-3.75zM26.5 28.25c0 1.45-1.3 2.75-2.85 2.75h-15.3c-1.5 0-2.85-1.3-2.85-2.75v-16.25h21v16.25zM5.5 11v-7.25c0-1.45 1.3-2.75 2.85-2.75h15.3c1.5 0 2.85 1.3 2.85 2.75v7.25h-21z"></path>
<path d="M8.25 2.5c-0.7 0-1.25 0.55-1.25 1.25v4.5c0 0.7 0.55 1.25 1.25 1.25s1.25-0.55 1.25-1.25v-4.5c0-0.7-0.55-1.25-1.25-1.25zM8.5 8.25c0 0.15-0.1 0.25-0.25 0.25s-0.25-0.1-0.25-0.25v-4.5c0-0.15 0.1-0.25 0.25-0.25s0.25 0.1 0.25 0.25v4.5z"></path>
<path d="M8.25 22.9c0.7 0 1.25-0.55 1.25-1.2v-7.050c0-0.65-0.55-1.2-1.25-1.2s-1.25 0.5-1.25 1.2v7.050c0 0.65 0.55 1.2 1.25 1.2zM8 14.65c0-0.1 0.1-0.2 0.25-0.2s0.25 0.1 0.25 0.2v7.050c0 0.1-0.1 0.2-0.25 0.2s-0.25-0.1-0.25-0.2v-7.050z"></path>
<path d="M24.5 5.050c-0.3 0-0.5 0.2-0.5 0.5v3.45c0 0.3 0.2 0.5 0.5 0.5s0.5-0.2 0.5-0.5v-3.45c0-0.25-0.2-0.5-0.5-0.5z"></path>
<path d="M24.5 26.85c0.3 0 0.5-0.2 0.5-0.5v-12.3c0-0.3-0.2-0.5-0.5-0.5s-0.5 0.2-0.5 0.5v12.3c0 0.25 0.2 0.5 0.5 0.5z"></path>
<path d="M24.5 2.75c-0.3 0-0.5 0.2-0.5 0.5v0.55c0 0.3 0.2 0.5 0.5 0.5s0.5-0.2 0.5-0.5v-0.55c0-0.3-0.2-0.5-0.5-0.5z"></path>
</symbol>
<symbol id="icon-water-drop-4-svgrepo-com" viewBox="0 0 32 32">
<path d="M24.481 12.221l-0.013-0.021-0.017-0.023-8.452-12.176-8.482 12.221c-1.698 2.67-2.851 5.757-2.856 8.859-0.001 1.333 0.219 2.668 0.715 3.941 0.494 1.273 1.268 2.48 2.332 3.545h0.001c2.285 2.286 5.295 3.435 8.291 3.434 2.996 0.002 6.005-1.147 8.291-3.434v0c1.065-1.064 1.839-2.271 2.333-3.544 0.496-1.274 0.715-2.609 0.715-3.941-0.006-3.103-1.158-6.19-2.857-8.86zM24.009 24.005c-0.357 0.917-0.903 1.777-1.701 2.577v0c-1.745 1.744-4.020 2.61-6.308 2.612-2.288-0.002-4.563-0.868-6.308-2.612v0c-0.799-0.8-1.344-1.66-1.702-2.578-0.356-0.917-0.523-1.896-0.523-2.924-0.007-2.38 0.929-5.021 2.408-7.336l6.125-8.824 6.127 8.826c1.478 2.315 2.412 4.955 2.406 7.335 0 1.027-0.167 2.007-0.524 2.924z"></path>
<path d="M12.833 14.861c-1.464 1.627-3.795 5.909-2.331 8.891 1.635 3.33 3.859 1.351 2.819-0.758-2.006-4.066-0.488-8.133-0.488-8.133z"></path>
</symbol>
</defs>
</svg>
